<?xml version="1.0" encoding="utf-8"?>
<!-- Generator: Adobe Illustrator 19.1.0, SVG Export Plug-In . SVG Version: 6.00 Build 0)  -->
<svg version="1.1" id="Layer_1" xmlns="http://www.w3.org/2000/svg" xmlns:xlink="http://www.w3.org/1999/xlink" x="0px" y="0px"
	 viewBox="0 0 512 64" style="enable-background:new 0 0 512 64;" xml:space="preserve">
<g>
	<path d="M38,23.1c-0.2,1.2-0.4,2.4-0.7,3.6c7.2,1,11,5.1,11,11.3c0,7.1-4.7,12.1-15,13.5L33,50.6c9.5-1.2,14.3-5.7,14.3-12.6
		c0-5.5-3.2-9.5-10.2-10.4c-1.9,7.6-5.7,13.6-10,17.3c0.3,1.2,0.6,2.3,1,3.4l-0.8,0.4c-0.3-0.9-0.7-2-0.9-3.1
		c-2.7,2.1-5.7,3.3-8.5,3.3c-4.1,0-5.5-2.1-5.5-5.9c0-6.2,5.2-12.1,12.7-14.8c0.1-2.9,0.3-5.7,0.7-8.7H12.5v-0.9h13.2
		c0.2-2.1,0.6-4.2,0.9-6.3l0.9,0.1c-0.3,2-0.7,4.1-0.9,6.2h21.1v0.9H26.6c-0.3,2.8-0.5,5.7-0.6,8.4c2.4-0.7,5-1.2,7.8-1.2
		c1,0,1.9,0,2.8,0.1c0.2-1.2,0.5-2.4,0.6-3.6L38,23.1z M13.3,42.8c0,3.3,1.1,5,4.5,5c2.8,0,5.7-1.2,8.4-3.3c-0.8-3.6-1.2-8-1.2-12.9
		c0-0.9,0-1.8,0-2.8C18,31.5,13.3,37.1,13.3,42.8z M33.8,27.3c-2.8,0-5.4,0.5-7.9,1.2c0,1.1,0,2.1,0,3.1c0,4.6,0.3,8.7,1,12.2
		c4.2-3.6,7.7-9.4,9.4-16.4C35.5,27.4,34.7,27.3,33.8,27.3z"/>
	<path d="M66.9,19.4c0.8-2.9,1.5-5.5,1.9-7.7l1,0.1c-0.4,2.1-1,4.7-1.8,7.5h9.8v0.9H67.6c-2.2,7.5-5.7,16.3-9.6,21.9l-0.8-0.6
		c3.8-5.3,7.2-13.9,9.4-21.4H58v-0.9H66.9z M85.4,25.9v4.5v10.3c3.3,1.3,6.4,3.2,9,5.2l-0.7,0.7c-2.4-2-5.3-3.8-8.4-5v2.6
		c0,4.6-2.5,7.1-7.9,7.1c-5.1,0-8.6-2.9-8.6-6c0-3.9,3.4-6.3,8.6-6.3c2.1,0,4.5,0.5,6.9,1.4v-9.9v-4.5H85.4z M77.6,40
		c-4.8,0-7.7,2.1-7.7,5.4c0,2.8,3.5,5.1,7.6,5.1c4.8,0,6.9-2.1,6.9-6.2v-2.9C82.1,40.5,79.8,40,77.6,40z M94.9,24.7
		c-2.6-2-7.9-5-11.5-6.4l0.5-0.8c3.8,1.7,8.6,4.4,11.5,6.4L94.9,24.7z"/>
	<path d="M113.4,18.6c0.4-2.3,0.7-4.5,0.8-6.4l1,0.1c-0.2,2-0.5,4.1-0.9,6.4h15.8v0.9h-15.9c-1.9,11-5.6,24.1-10,31.8l-0.8-0.5
		c4.3-7.6,8-20.6,9.9-31.3h-9.7v-0.9H113.4z M122.9,39.5c-1.2,2.2-1.8,4-1.8,5.6c0,2.9,3.9,3.9,13,3.9c2.2,0,4.4-0.1,6.3-0.3v0.9
		c-2,0.2-4.1,0.3-6.3,0.3c-9.2,0-13.9-1.2-13.9-4.8c0-1.8,0.6-3.6,1.9-5.9L122.9,39.5z M139.7,27.6c-1.6-0.1-4-0.1-6.3-0.1
		c-3.6,0-7.7,0.2-10.9,0.6v-0.9c3.2-0.3,7.4-0.5,11.1-0.6c2.2,0,4.4,0,6,0.1V27.6z"/>
	<path d="M149.8,36.1c0-10.1,7.9-19.6,19.1-19.6c11.3,0,17.4,6.1,17.4,15.9c0,9.2-4.5,15.6-16.7,18.1l-0.4-0.9
		c12-2.3,16.1-8.5,16.1-17.2c0-9.3-6.1-15-16.2-15c-0.2,0-0.4,0-0.6,0c-0.5,18.2-6.4,30.4-12,30.4C153.1,47.9,149.8,42.5,149.8,36.1
		L149.8,36.1z M150.7,36.1c0,5.3,2.7,10.8,5.8,10.8c4.8,0,10.7-11.7,11-29.4C157.4,18.3,150.7,26.9,150.7,36.1z"/>
	<path d="M201.8,43.8V14h-8.3v-0.9h41.6V14h-8.7v27.4c3.2-0.3,6.2-0.7,8.8-0.9v0.9c-2.6,0.3-5.6,0.6-8.8,0.9v10.4h-0.9V42.4
		c-11.1,1.2-24.3,2.5-32.1,3.2l-0.2-1C195.6,44.4,198.5,44.2,201.8,43.8z M225.5,22.8V14h-22.8v8.8H225.5z M225.5,32.8v-9.1h-22.8
		v9.1H225.5z M225.5,41.5v-7.8h-22.8v10C209.8,43.1,218.1,42.2,225.5,41.5z"/>
	<path d="M247.1,13c-1.1,5.4-1.7,12.5-1.7,19.2c0,6.7,0.6,13.7,2.2,18.6l-0.9,0.3c-1.6-5.4-2.2-12.1-2.2-18.9s0.7-13.7,1.7-19.4
		L247.1,13z M270.2,22.3c-0.1-3.7-0.2-7.1-0.2-9.6h1v6c0,1.2,0,2.3,0,3.6h8.5v0.9H271c0.1,7,0.5,14.6,0.6,17.7c2.9,1.3,5.6,3,8,4.9
		l-0.6,0.8c-2.4-1.9-4.9-3.6-7.5-4.8c-0.1,6.5-1.9,8.9-8.3,8.9c-5.2,0-8.6-2.8-8.6-6.1c0-3.4,3.3-5.7,8.4-5.7c2.6,0,5.1,0.6,7.6,1.5
		c0-3.6-0.3-10.7-0.5-17.3h-15.7v-0.9H270.2z M263.1,39.9c-4.6,0-7.4,2-7.4,4.9c0,2.7,2.8,5.2,7.6,5.2c6.1,0,7.4-2.2,7.4-8.4
		C268.2,40.5,265.6,39.9,263.1,39.9z"/>
	<path d="M285.9,42.9c3.2,2.8,6.8,6.5,8.9,9.3l-0.8,0.6c-2-2.6-5.7-6.5-8.8-9.2L285.9,42.9z"/>
	<path d="M338,41.9v-3.8h-22.1v-0.5v-0.4V25.4c-1.9,2-4.2,3.7-6.6,5.2l-0.7-0.6c4-2.4,7.6-5.5,9.9-9.1c-3,1.5-6.4,2.6-10.2,3.6
		l-0.6-0.8c4.3-1,8.2-2.3,11.5-4.1c2.1-1.1,3.9-2.3,5.5-3.7h-16.3V15h17.2c1.3-1.3,2.4-2.7,3.3-4.3l1,0.2c-0.9,1.4-1.9,2.8-3.1,4
		h22.9v0.9h-16.6c4,3.8,11.1,6.4,17.5,7.6l-0.7,0.8c-6.7-1.3-14.1-4.1-18.1-8.4H326c-1.8,1.7-3.8,3.1-6.1,4.3c-0.6,1-1.2,2-2,2.9
		h9.5c0.7-1.5,1.4-3,1.8-4.2l0.9,0.3c-0.5,1.2-1.1,2.5-1.8,3.9h15.7V24h-14.8v3.8h13v0.9h-13v3.8h13v0.9h-13v3.9h17.2v0.9h-7.7v3.8
		h11.2v0.9h-11.2v7.8c0,1.2-0.4,1.9-1.6,2.1c-1.1,0.1-4.5,0.1-6.8,0l0-0.9c2.1,0,5.5,0.1,6.3,0c0.9,0,1.3-0.5,1.3-1.3v-7.8h-29.9
		v-0.9H338z M328.5,27.8V24h-11.3c-0.1,0.2-0.3,0.3-0.4,0.5v3.3H328.5z M328.5,32.5v-3.8h-11.7v3.8H328.5z M328.5,37.2v-3.9h-11.7
		v3.9H328.5z M318.5,44c3.5,2.1,6.2,4.1,8.2,6l-0.7,0.7c-2-2-4.7-4-8.1-6L318.5,44z"/>
	<path d="M366.1,21c0.1-3.4,0.1-6.5,0.2-8.9h1c-0.1,2.2-0.2,5.3-0.3,8.8l0.5,0.3c-0.2,0.9-0.5,2.6-0.6,4.4c-0.1,1.5,0,3.1-0.1,4.7
		c4.6-4.4,9.9-8.3,16.6-8.3c7,0,11.4,5.8,11.4,12.9c0,7.5-4.5,13.5-17.2,15.5l-0.3-0.9C389.7,47.7,394,42.2,394,35
		c0-6.5-4-12-10.7-12c-5.9,0-11.2,3.4-16.5,8.6c-0.1,8-0.2,16.1-0.2,19.8h-1c0-3.9,0.1-11.3,0.3-18.9c-0.3,0.2-0.5,0.5-0.7,0.7
		c-1.6,1.7-5.8,5.9-8.9,9.3l-0.7-0.6c2.8-2.9,6.9-7.1,9.1-9.9c0.6-0.8,1-1.7,1.3-2.6c0-2.5,0.1-5,0.1-7.4c-2.5,0.2-7.2,0.4-9.8,0.6
		l-0.1-0.9C358.4,21.6,363.8,21.3,366.1,21z"/>
	<path d="M413.7,20.4c-0.3,0.6-0.5,1.4-0.7,2.3c0,2.1,0,4.2-0.1,6.3c3.3-3.5,7-6.7,10.4-8.8c2.2-1.4,4.3-2,5.7-2
		c3.5,0,5.2,2.7,5.2,7.5c0,1.9-0.1,4.7-0.3,7.9c-0.2,4-0.5,7.7-0.5,10.7c0,3.1,1.1,4.3,3.1,4.3c1.4,0,4.2-0.9,6.4-3.5l0.5,0.9
		c-2.6,2.4-5.1,3.5-7,3.5c-2.4,0-3.9-1.6-3.9-5.4c0-2.4,0.2-6.3,0.5-10.5c0.1-3.3,0.3-6.2,0.3-8c0-4.3-1.5-6.5-4.3-6.5
		c-1.4,0-3.2,0.7-5.3,2c-2.6,1.5-7,5.1-10.8,9.4c-0.1,8.5-0.2,17.2-0.2,21.1h-1c0-4.1,0.1-12.1,0.3-20.1l-0.4,0.5
		c-2.2,2.8-6.5,9.5-8.8,13l-0.7-0.5c2.3-3.3,6.6-10,8.6-13.1c0.7-1,1.1-2.2,1.4-3.5c0-2.3,0.1-4.6,0.1-6.8c-2.4,0.2-6.2,0.5-9.3,0.6
		l0-0.9c2.2,0,7.3-0.3,9.4-0.7c0.1-3.2,0.1-6,0.2-8.2h1c-0.1,2-0.2,4.9-0.3,8.1L413.7,20.4z"/>
	<path d="M475.3,14.6l0.7,0.8c-5.3,4.7-13.6,12.1-17.9,15.8c3.7-1.8,7.6-2.7,12-2.7c7.1,0,11.1,4.7,11.1,10.6
		c0,7.7-6.5,11.8-16.4,11.8c-5.5,0-9-2.2-9-5.7c0-3.4,3.2-5.8,7.5-5.8c5.2,0,8,4.3,8.5,9.7c5.3-1.4,8.4-4.8,8.4-10
		c0-5.4-3.6-9.7-10.3-9.7c-3.9,0-8.4,0.8-12.6,3.1c-2.1,1.2-6.9,4.9-9.6,7.2l-0.7-0.7c6.8-5.3,21.6-18.4,27.4-23.6
		c-5.3,0.4-17.7,0.8-23,0.8l0-0.9C456.5,15.5,469.2,15.1,475.3,14.6z M463.3,40.4c-4,0-6.6,2-6.6,4.9c0,2.7,2.9,4.7,8,4.7
		c2.3,0,4.4-0.2,6.2-0.6C470.6,44.4,468.1,40.4,463.3,40.4z"/>
	<path d="M499.6,47.2c0,3-2.5,5.6-5.6,5.6c-3.1,0-5.6-2.5-5.6-5.6c0-3.1,2.5-5.6,5.6-5.6C497.1,41.5,499.6,44.1,499.6,47.2
		L499.6,47.2z M489.3,47.2c0,2.5,2.1,4.6,4.7,4.6c2.6,0,4.7-2.1,4.7-4.7c0-2.5-2.1-4.7-4.7-4.7C491.4,42.5,489.3,44.6,489.3,47.2
		L489.3,47.2z"/>
</g>
</svg>
