<?xml version="1.0" encoding="utf-8"?>
<!-- Generator: Adobe Illustrator 19.1.0, SVG Export Plug-In . SVG Version: 6.00 Build 0)  -->
<svg version="1.1" id="Layer_1" xmlns="http://www.w3.org/2000/svg" xmlns:xlink="http://www.w3.org/1999/xlink" x="0px" y="0px"
	 viewBox="0 0 512 512" style="enable-background:new 0 0 512 512;" xml:space="preserve">
<style type="text/css">
	.st0{fill:#FFFFFF;}
</style>
<g>
	<polygon class="st0" points="391.6,355.3 346.2,141 275.4,212.7 236.1,212.7 165.3,140.9 119.9,355.2 	"/>
	<path class="st0" d="M-3.2-3.2v517.9h517.9V-3.2H-3.2z M255.8,477.3c-122.3,0-221.5-99.2-221.5-221.5
		c0-122.3,99.2-221.5,221.5-221.5c56.4,0,107.8,21.1,146.9,55.7c6.4-5.2,14.6-8.4,23.5-8.4c20.5,0,37.2,16.7,37.2,37.2
		c0,11.8-5.5,22.3-14.1,29.1c17.8,31.9,28,68.7,28,107.9C477.3,378.1,378.1,477.3,255.8,477.3z"/>
</g>
</svg>
