<?xml version="1.0" encoding="utf-8"?>
<!-- Generator: Adobe Illustrator 19.1.0, SVG Export Plug-In . SVG Version: 6.00 Build 0)  -->
<svg version="1.1" id="Layer_1" xmlns="http://www.w3.org/2000/svg" xmlns:xlink="http://www.w3.org/1999/xlink" x="0px" y="0px"
	 viewBox="0 0 160 64" style="enable-background:new 0 0 160 64;" xml:space="preserve">
<style type="text/css">
	.st0{fill:#FBD703;}
	.st1{fill:#FFFFFF;}
</style>
<g>
	<path class="st0" d="M53.6,19.4c1-0.8,1.7-2.1,1.7-3.6c0-2.5-2-4.5-4.5-4.5c-1.1,0-2.1,0.4-2.9,1C43.2,8.1,36.9,5.5,30,5.5
		c-14.9,0-27,12.1-27,27s12.1,27,27,27s27-12.1,27-27C57,27.7,55.8,23.3,53.6,19.4z"/>
	<polygon class="st1" points="46.6,44.7 41,18.5 32.4,27.3 27.6,27.3 19,18.5 13.4,44.7 	"/>
</g>
<g>
	<path d="M71,24.2h0.8v3.7h0.1c0.1-0.5,0.3-0.9,0.5-1.4c0.3-0.5,0.7-0.9,1.1-1.4c0.5-0.4,1-0.8,1.6-1c0.6-0.3,1.3-0.4,2-0.4
		c1,0,1.8,0.2,2.5,0.5c0.7,0.3,1.2,0.7,1.6,1.3c0.4,0.6,0.7,1.2,0.9,2c0.2,0.8,0.3,1.6,0.3,2.5v14.9h-0.8V30.1
		c0-1.2-0.1-2.1-0.4-2.8s-0.6-1.3-1-1.7c-0.4-0.4-0.9-0.7-1.4-0.9c-0.5-0.2-1.1-0.2-1.7-0.2c-0.5,0-1,0.1-1.6,0.3
		c-0.6,0.2-1.2,0.6-1.8,1.1c-0.6,0.5-1,1.3-1.4,2.2c-0.4,0.9-0.6,2.1-0.6,3.6v13.2H71V24.2z"/>
	<path d="M86.4,34.1c0,1.6,0.1,3,0.3,4.3c0.2,1.3,0.5,2.4,0.9,3.3c0.4,0.9,1,1.7,1.8,2.2c0.7,0.5,1.7,0.8,2.8,0.8
		c1,0,1.8-0.2,2.4-0.7c0.7-0.4,1.2-1,1.6-1.6c0.4-0.7,0.7-1.4,0.9-2.1c0.2-0.8,0.3-1.5,0.3-2.1h0.8c-0.1,1-0.2,2-0.5,2.8
		c-0.3,0.9-0.7,1.6-1.2,2.3c-0.5,0.6-1.1,1.2-1.9,1.5c-0.7,0.4-1.5,0.6-2.4,0.6c-2.4,0-4-0.9-5.1-2.8c-1-1.9-1.5-4.8-1.5-8.6
		c0-1.6,0.1-3,0.4-4.3c0.3-1.3,0.7-2.3,1.2-3.2c0.5-0.9,1.2-1.6,2.1-2c0.8-0.5,1.8-0.7,3-0.7c1.2,0,2.2,0.2,3,0.7
		c0.8,0.5,1.4,1.2,1.9,2c0.5,0.8,0.8,1.8,1,2.8c0.2,1.1,0.3,2.2,0.3,3.4v1.4H86.4z M97.6,33.4V32c0-0.8-0.1-1.6-0.2-2.5
		c-0.1-0.9-0.4-1.7-0.8-2.4c-0.4-0.7-1-1.4-1.6-1.8c-0.7-0.5-1.6-0.7-2.7-0.7c-1.1,0-2,0.2-2.7,0.7c-0.7,0.5-1.3,1.2-1.8,2
		c-0.4,0.8-0.8,1.8-1,2.8c-0.2,1.1-0.3,2.2-0.3,3.4H97.6z"/>
	<path d="M101.5,24.2h0.8v3.3h0.1c0.3-1,0.9-1.9,1.7-2.7c0.8-0.8,1.9-1.1,3.2-1.1c0.9,0,1.6,0.1,2.2,0.4c0.6,0.3,1,0.7,1.3,1.1
		c0.3,0.4,0.5,0.9,0.7,1.3c0.1,0.5,0.2,0.9,0.3,1.2h0.1c0.1-0.4,0.3-0.9,0.5-1.4c0.3-0.5,0.6-0.9,1-1.3c0.4-0.4,0.9-0.7,1.4-1
		c0.6-0.3,1.2-0.4,1.9-0.4c0.9,0,1.6,0.1,2.2,0.4c0.6,0.3,1.1,0.7,1.5,1.2c0.4,0.5,0.7,1.1,0.9,1.7c0.2,0.7,0.3,1.4,0.3,2.1v15.8
		h-0.8V29.1c0-0.9-0.1-1.6-0.4-2.2c-0.2-0.6-0.5-1.1-0.9-1.4c-0.4-0.4-0.8-0.6-1.2-0.8c-0.5-0.2-0.9-0.2-1.3-0.2
		c-0.8,0-1.5,0.2-2.1,0.5c-0.6,0.3-1.2,0.8-1.6,1.4c-0.4,0.6-0.7,1.3-1,2.2c-0.2,0.8-0.3,1.8-0.3,2.7v13.6h-0.8V29.3
		c0-0.6-0.1-1.3-0.2-1.8c-0.1-0.6-0.3-1.1-0.6-1.5c-0.3-0.4-0.7-0.8-1.2-1.1c-0.5-0.3-1.1-0.4-1.8-0.4c-0.7,0-1.3,0.1-1.9,0.4
		c-0.6,0.3-1.1,0.7-1.6,1.4c-0.5,0.6-0.8,1.4-1.1,2.4c-0.3,1-0.4,2.1-0.4,3.4v12.9h-0.8V24.2z"/>
	<path d="M125.6,16.2h0.8v3.9h-0.8V16.2z M125.6,24.2h0.8v20.7h-0.8V24.2z"/>
	<path d="M130.4,24.2h0.8v3.3h0.1c0.3-1,0.9-1.9,1.7-2.7c0.8-0.8,1.9-1.1,3.2-1.1c0.9,0,1.6,0.1,2.2,0.4c0.6,0.3,1,0.7,1.3,1.1
		c0.3,0.4,0.5,0.9,0.7,1.3c0.1,0.5,0.2,0.9,0.3,1.2h0.1c0.1-0.4,0.3-0.9,0.5-1.4c0.3-0.5,0.6-0.9,1-1.3c0.4-0.4,0.9-0.7,1.4-1
		c0.6-0.3,1.2-0.4,1.9-0.4c0.9,0,1.6,0.1,2.2,0.4c0.6,0.3,1.1,0.7,1.5,1.2c0.4,0.5,0.7,1.1,0.9,1.7c0.2,0.7,0.3,1.4,0.3,2.1v15.8
		h-0.8V29.1c0-0.9-0.1-1.6-0.4-2.2c-0.2-0.6-0.5-1.1-0.9-1.4c-0.4-0.4-0.8-0.6-1.2-0.8c-0.5-0.2-0.9-0.2-1.3-0.2
		c-0.8,0-1.5,0.2-2.1,0.5c-0.6,0.3-1.2,0.8-1.6,1.4c-0.4,0.6-0.7,1.3-1,2.2c-0.2,0.8-0.3,1.8-0.3,2.7v13.6h-0.8V29.3
		c0-0.6-0.1-1.3-0.2-1.8c-0.1-0.6-0.3-1.1-0.6-1.5c-0.3-0.4-0.7-0.8-1.2-1.1c-0.5-0.3-1.1-0.4-1.8-0.4c-0.7,0-1.3,0.1-1.9,0.4
		c-0.6,0.3-1.1,0.7-1.6,1.4c-0.5,0.6-0.8,1.4-1.1,2.4c-0.3,1-0.4,2.1-0.4,3.4v12.9h-0.8V24.2z"/>
	<path d="M154.5,16.2h0.8v3.9h-0.8V16.2z M154.5,24.2h0.8v20.7h-0.8V24.2z"/>
</g>
</svg>
