<?xml version="1.0" encoding="utf-8"?>
<!-- Generator: Adobe Illustrator 16.1.0, SVG Export Plug-In . SVG Version: 6.00 Build 0)  -->
<!DOCTYPE svg PUBLIC "-//W3C//DTD SVG 1.1//EN" "http://www.w3.org/Graphics/SVG/1.1/DTD/svg11.dtd">
<svg version="1.1" id="レイヤー_1" xmlns="http://www.w3.org/2000/svg" xmlns:xlink="http://www.w3.org/1999/xlink" x="0px"
	 y="0px" width="841.89px" height="595.28px" viewBox="0 0 841.89 595.28" enable-background="new 0 0 841.89 595.28"
	 xml:space="preserve">
<path opacity="0.2" fill-rule="evenodd" clip-rule="evenodd" d="M230.399,358.942c-34.851,0.093-63.256-28.317-63.293-63.191
	c-0.037-34.962,28.434-63.395,63.366-63.347c34.836,0.048,63.208,28.421,63.188,63.315
	C293.642,330.614,265.23,359.019,230.399,358.942z M257.646,274.138c0.705-0.094,1.361-0.188,2.02-0.269
	c1.83-0.217,3.644-0.106,5.436,0.31c0.5,0.116,0.938,0.429,1.093,0.913c0.187,0.585,0.297,1.213,0.324,1.828
	c0.021,0.477-0.138,0.96-0.21,1.403c1.4,2.196,0.93,3.172-1.629,3.478c0.403,1.619,0.403,1.619-0.345,3.116
	c1.028,0.33,2.049,0.658,3.162,1.015c-0.238,1.447-0.47,2.852-0.704,4.275c0.301,0.171,0.532,0.327,0.783,0.44
	c1.121,0.502,2.25,0.987,3.37,1.489c0.371,0.167,0.727,0.366,1.058,0.533c-0.16,1.622-0.278,3.125-0.469,4.619
	c-0.072,0.559,0.057,0.957,0.493,1.281c0.758,0.564,1.491,1.169,2.282,1.683c0.783,0.51,1.625,0.93,2.408,1.369
	c-0.274,1.775-0.517,3.475-0.806,5.165c-0.151,0.88,0.082,1.599,0.726,2.188c0.854,0.782,1.714,1.558,2.586,2.319
	c0.166,0.145,0.401,0.21,0.682,0.35c0.443-1.496,0.972-2.883,1.254-4.317c0.706-3.589,1.087-7.228,1.065-10.884
	c-0.016-2.735-0.178-5.477-0.432-8.201c-0.169-1.807-0.487-3.622-0.962-5.374c-1.244-4.588-3.118-8.935-5.49-13.051
	c-1.065-1.849-2.209-3.67-3.49-5.374c-2.157-2.869-4.635-5.465-7.348-7.818c-1.404-1.217-2.831-2.424-4.353-3.485
	c-3.99-2.782-8.334-4.905-12.888-6.588c-1.674-0.618-3.369-1.238-5.109-1.608c-3.472-0.738-7.014-1.008-10.562-1.119
	c-2.885-0.09-5.762,0.113-8.623,0.442c-1.806,0.209-3.622,0.493-5.375,0.963c-4.352,1.167-8.477,2.936-12.411,5.124
	c-1.804,1.003-3.595,2.062-5.262,3.274c-3.448,2.51-6.5,5.473-9.283,8.701c-0.961,1.115-1.884,2.271-2.728,3.479
	c-2.359,3.376-4.229,7.025-5.81,10.821c-0.997,2.395-1.947,4.824-2.474,7.366c-0.729,3.511-1.081,7.087-1.074,10.671
	c0.005,2.805,0.171,5.617,0.427,8.412c0.169,1.842,0.494,3.692,0.979,5.477c1.246,4.588,3.131,8.931,5.5,13.048
	c1.063,1.849,2.222,3.661,3.503,5.364c2.157,2.869,4.641,5.46,7.353,7.814c1.35,1.172,2.725,2.329,4.183,3.361
	c3.361,2.381,7.023,4.231,10.815,5.82c2.394,1.002,4.824,1.95,7.363,2.479c3.476,0.723,7.015,1.001,10.564,1.101
	c2.85,0.079,5.693-0.099,8.516-0.441c1.944-0.234,3.913-0.506,5.781-1.061c2.479-0.735,4.889-1.717,7.292-2.686
	c1.49-0.6,2.91-1.372,4.309-2.043c0.094-0.571,0.092-1.048,0.253-1.462c0.465-1.191,0.14-2.269-0.37-3.337
	c-0.09-0.19-0.196-0.372-0.282-0.565c-0.234-0.521-0.31-1.025-0.173-1.624c0.288-1.271,0.094-2.539-0.538-3.671
	c-0.463-0.833-0.882-1.668-1.189-2.569c-0.18-0.529-0.419-1.046-0.694-1.533c-0.598-1.062-0.877-2.21-1.04-3.402
	c-0.041-0.299-0.103-0.675-0.3-0.859c-0.908-0.846-1.063-1.978-1.144-3.085c-0.057-0.785-0.399-1.172-1.025-1.548
	c-1.065-0.641-1.906-1.527-1.778-2.883c0.136-1.448-0.475-2.502-1.476-3.434c-0.357-0.333-0.682-0.702-0.994-1.078
	c-0.478-0.575-0.656-0.646-1.212-0.218c-1.706,1.313-3.592,2.323-5.48,3.336c-3.036,1.63-6.24,2.479-9.708,2.31
	c-2.35-0.115-4.704-0.193-7.056-0.185c-4.259,0.016-8.286,1.007-11.968,3.192c-1.78,1.057-3.506,2.207-5.236,3.347
	c-0.636,0.421-1.269,0.682-2.055,0.656c-1.525-0.047-3.006-0.251-4.406-0.895c-0.389-0.179-0.783-0.321-1.209-0.102
	c-1.658,0.857-3.291,0.458-4.881-0.173c-1.083-0.43-1.416-1.316-1.03-2.401c0.082-0.231,0.228-0.445,0.279-0.681
	c0.104-0.476,0.286-0.978,0.222-1.438c-0.259-1.855,0.019-3.656,0.544-5.412c0.71-2.375,1.979-4.414,4.017-5.902
	c0.936-0.684,1.863-1.387,2.853-1.982c1.52-0.916,2.438-2.243,3.095-3.859c1.582-3.899,4.124-7.086,7.481-9.607
	c1.487-1.116,3.026-2.168,4.575-3.198c1.45-0.965,2.58-2.152,3.108-3.851c0.114-0.366,0.317-0.704,0.47-1.058
	c0.639-1.483,1.302-2.958,1.424-4.602c0.013-0.17,0.083-0.343,0.154-0.5c0.685-1.519,1.747-2.709,3.194-3.525
	c0.385-0.218,0.851-0.344,1.293-0.397c0.869-0.102,1.749-0.125,2.624-0.177c1.11-0.066,2.121-0.373,3.038-1.044
	c1.316-0.962,2.501-2.049,3.458-3.369c1.091-1.506,2.177-3.019,3.222-4.558c0.391-0.576,0.658-1.237,0.987-1.856
	c0.288-0.541,0.242-1.008-0.078-1.565c-0.359-0.625-0.646-1.338-0.763-2.047c-0.646-3.921,2.134-7.837,7.265-6.676
	c0.483,0.109,0.881,0.082,1.307-0.12c1.445-0.688,2.942-0.836,4.516-0.512c1.026,0.21,1.946,0.61,2.721,1.292
	c2.557,2.25,2.555,5.917,0.814,8.2c-0.782,1.024-1.688,1.878-2.832,2.474c-1.14,0.593-1.912,1.512-2.439,2.668
	c-0.364,0.796-0.757,1.58-1.148,2.363c-0.33,0.662-0.244,1.021,0.382,1.408c0.208,0.129,0.433,0.231,0.655,0.338
	c0.884,0.427,1.782,0.83,2.654,1.282c1.736,0.897,3.561,1.473,5.513,1.649c0.45,0.041,0.905,0.134,1.333,0.276"/>
<g opacity="0.2">
	<path d="M332.464,257.23v44.226l13.612-13.527h12.967l-18.163,17.562l19.495,24.261h-12.539l-13.826-17.646l-1.546,1.545v16.102
		h-9.661V257.23H332.464z"/>
	<path d="M365.14,270.54c0-1.688,0.615-3.148,1.846-4.379c1.231-1.23,2.705-1.846,4.422-1.846c1.746,0,3.234,0.615,4.466,1.846
		c1.23,1.202,1.846,2.676,1.846,4.422c0,1.747-0.616,3.235-1.846,4.465c-1.203,1.232-2.678,1.846-4.424,1.846
		c-1.746,0-3.234-0.614-4.465-1.846C365.755,273.818,365.14,272.315,365.14,270.54z M376.261,287.929v41.823H366.6v-41.823H376.261z
		"/>
	<path d="M386.899,287.929h9.662v3.735c1.774-1.858,3.348-3.134,4.723-3.82c1.402-0.715,3.063-1.073,4.98-1.073
		c2.547,0,5.21,0.831,7.987,2.49l-4.423,8.845c-1.833-1.316-3.622-1.976-5.367-1.976c-5.267,0-7.9,3.979-7.9,11.937v21.685h-9.662
		V287.929z"/>
	<path d="M419.661,270.54c0-1.688,0.615-3.148,1.847-4.379c1.23-1.23,2.705-1.846,4.422-1.846c1.746,0,3.234,0.615,4.466,1.846
		c1.229,1.202,1.847,2.676,1.847,4.422c0,1.747-0.617,3.235-1.847,4.465c-1.202,1.232-2.678,1.846-4.423,1.846
		c-1.746,0-3.235-0.614-4.465-1.846C420.275,273.818,419.661,272.315,419.661,270.54z M430.781,287.929v41.823h-9.66v-41.823
		H430.781z"/>
	<path d="M441.42,287.929h9.704v3.867c3.377-3.351,7.186-5.025,11.421-5.025c4.866,0,8.66,1.531,11.378,4.595
		c2.348,2.604,3.521,6.855,3.521,12.751v25.635h-9.703v-23.328c0-4.117-0.573-6.962-1.718-8.534
		c-1.115-1.603-3.148-2.401-6.097-2.401c-3.206,0-5.481,1.056-6.828,3.172c-1.315,2.088-1.975,5.73-1.975,10.937v20.154h-9.704
		V287.929z"/>
	<path d="M513.142,295.058l-7.985,4.252c-1.261-2.548-2.821-3.821-4.681-3.821c-0.888,0-1.646,0.293-2.275,0.879
		c-0.631,0.584-0.946,1.335-0.946,2.25c0,1.602,1.862,3.188,5.583,4.761c5.124,2.201,8.574,4.231,10.349,6.089
		c1.774,1.859,2.663,4.361,2.663,7.505c0,4.032-1.489,7.406-4.467,10.121c-2.892,2.574-6.384,3.861-10.477,3.861
		c-7.014,0-11.979-3.421-14.899-10.264l8.244-3.821c1.145,2.004,2.019,3.279,2.619,3.821c1.172,1.09,2.576,1.633,4.208,1.633
		c3.263,0,4.894-1.488,4.894-4.466c0-1.719-1.259-3.321-3.777-4.81c-0.975-0.485-1.947-0.958-2.921-1.417
		c-0.972-0.456-1.96-0.931-2.962-1.416c-2.806-1.375-4.781-2.749-5.926-4.123c-1.459-1.745-2.189-3.994-2.189-6.741
		c0-3.635,1.246-6.639,3.735-9.017c2.548-2.376,5.639-3.563,9.275-3.563C506.558,286.771,510.537,289.534,513.142,295.058z"/>
	<path d="M555.352,287.929h9.703v41.823h-9.703v-4.38c-3.979,3.721-8.26,5.583-12.839,5.583c-5.782,0-10.562-2.09-14.341-6.27
		c-3.752-4.266-5.626-9.59-5.626-15.974c0-6.269,1.874-11.493,5.626-15.672c3.75-4.178,8.443-6.269,14.084-6.269
		c4.864,0,9.23,2.004,13.096,6.011V287.929z M532.423,308.712c0,4.008,1.073,7.271,3.219,9.79c2.205,2.548,4.981,3.822,8.33,3.822
		c3.579,0,6.47-1.23,8.673-3.692c2.205-2.548,3.308-5.782,3.308-9.706c0-3.921-1.103-7.153-3.308-9.704
		c-2.203-2.489-5.065-3.733-8.587-3.733c-3.32,0-6.096,1.259-8.329,3.777C533.523,301.814,532.423,304.961,532.423,308.712z"/>
	<path d="M576.45,287.929h9.704v3.867c3.377-3.351,7.185-5.025,11.421-5.025c4.866,0,8.659,1.531,11.378,4.595
		c2.347,2.604,3.521,6.855,3.521,12.751v25.635h-9.703v-23.328c0-4.117-0.573-6.962-1.719-8.534
		c-1.116-1.603-3.148-2.401-6.097-2.401c-3.206,0-5.481,1.056-6.826,3.172c-1.317,2.088-1.976,5.73-1.976,10.937v20.154h-9.704
		V287.929z"/>
	<path d="M622.174,324.943c0-1.604,0.587-2.991,1.76-4.166c1.175-1.174,2.577-1.76,4.208-1.76c1.633,0,3.035,0.586,4.209,1.76
		c1.173,1.175,1.76,2.577,1.76,4.209c0,1.66-0.587,3.077-1.76,4.251c-1.146,1.145-2.549,1.718-4.209,1.718
		c-1.688,0-3.105-0.573-4.25-1.718C622.746,328.092,622.174,326.659,622.174,324.943z"/>
	<path d="M640.236,308.54c0-6.039,2.16-11.178,6.484-15.414c4.321-4.236,9.589-6.355,15.8-6.355c6.24,0,11.536,2.133,15.889,6.398
		c4.293,4.266,6.441,9.503,6.441,15.715c0,6.27-2.163,11.522-6.485,15.759c-4.351,4.208-9.689,6.312-16.015,6.312
		c-6.271,0-11.523-2.148-15.759-6.441C642.355,320.277,640.236,314.954,640.236,308.54z M650.111,308.712
		c0,4.181,1.117,7.486,3.351,9.92c2.29,2.462,5.309,3.692,9.059,3.692c3.778,0,6.8-1.217,9.061-3.651
		c2.262-2.432,3.393-5.681,3.393-9.747c0-4.062-1.131-7.312-3.393-9.745c-2.29-2.462-5.31-3.692-9.061-3.692
		c-3.692,0-6.683,1.229-8.973,3.692C651.258,301.642,650.111,304.82,650.111,308.712z"/>
	<path d="M692.672,287.929h9.66v3.735c1.774-1.858,3.35-3.134,4.723-3.82c1.402-0.715,3.064-1.073,4.98-1.073
		c2.549,0,5.211,0.831,7.987,2.49l-4.423,8.845c-1.833-1.316-3.622-1.976-5.367-1.976c-5.268,0-7.9,3.979-7.9,11.937v21.685h-9.66
		V287.929z"/>
	<path d="M764.409,328.765c0,1.976-0.062,3.714-0.193,5.218c-0.128,1.501-0.308,2.826-0.535,3.971
		c-0.688,3.148-2.033,5.853-4.037,8.115c-3.779,4.351-8.974,6.526-15.586,6.526c-5.582,0-10.176-1.51-13.784-4.531
		c-3.721-3.104-5.867-7.392-6.439-12.858h9.704c0.372,2.062,0.986,3.649,1.845,4.767c2.004,2.604,4.924,3.906,8.761,3.906
		c7.07,0,10.605-4.321,10.605-12.967v-5.84c-3.837,3.923-8.259,5.884-13.268,5.884c-5.697,0-10.363-2.062-13.998-6.185
		c-3.665-4.179-5.497-9.403-5.497-15.672c0-6.097,1.704-11.278,5.11-15.544c3.665-4.522,8.502-6.783,14.513-6.783
		c5.267,0,9.646,1.96,13.14,5.883v-4.725h9.66V328.765z M755.136,308.948c0-4.058-1.09-7.302-3.264-9.73
		c-2.204-2.488-5.024-3.729-8.46-3.729c-3.663,0-6.555,1.357-8.674,4.071c-1.918,2.431-2.875,5.575-2.875,9.432
		c0,3.802,0.957,6.918,2.875,9.347c2.09,2.657,4.981,3.986,8.674,3.986c3.694,0,6.613-1.344,8.76-4.03
		C754.147,315.865,755.136,312.749,755.136,308.948z"/>
</g>
<path fill-rule="evenodd" clip-rule="evenodd" fill="#FFFFFF" d="M230.399,360.942c-34.851,0.093-63.256-28.317-63.293-63.191
	c-0.037-34.962,28.434-63.395,63.366-63.347c34.836,0.048,63.208,28.421,63.188,63.315
	C293.642,332.614,265.23,361.019,230.399,360.942z M257.646,276.138c0.705-0.094,1.361-0.188,2.02-0.269
	c1.83-0.217,3.644-0.106,5.436,0.31c0.5,0.116,0.938,0.429,1.093,0.913c0.187,0.585,0.297,1.213,0.324,1.828
	c0.021,0.477-0.138,0.96-0.21,1.403c1.4,2.196,0.93,3.172-1.629,3.478c0.403,1.619,0.403,1.619-0.345,3.116
	c1.028,0.33,2.049,0.658,3.162,1.015c-0.238,1.447-0.47,2.852-0.704,4.275c0.301,0.171,0.532,0.327,0.783,0.44
	c1.121,0.502,2.25,0.987,3.37,1.489c0.371,0.167,0.727,0.366,1.058,0.533c-0.16,1.622-0.278,3.125-0.469,4.619
	c-0.072,0.559,0.057,0.957,0.493,1.281c0.758,0.564,1.491,1.169,2.282,1.683c0.783,0.51,1.625,0.93,2.408,1.369
	c-0.274,1.775-0.517,3.475-0.806,5.165c-0.151,0.88,0.082,1.599,0.726,2.188c0.854,0.782,1.714,1.558,2.586,2.319
	c0.166,0.145,0.401,0.21,0.682,0.35c0.443-1.496,0.972-2.883,1.254-4.317c0.706-3.589,1.087-7.228,1.065-10.884
	c-0.016-2.735-0.178-5.477-0.432-8.201c-0.169-1.807-0.487-3.622-0.962-5.374c-1.244-4.588-3.118-8.935-5.49-13.051
	c-1.065-1.849-2.209-3.67-3.49-5.374c-2.157-2.869-4.635-5.465-7.348-7.818c-1.404-1.217-2.831-2.424-4.353-3.485
	c-3.99-2.782-8.334-4.905-12.888-6.588c-1.674-0.618-3.369-1.238-5.109-1.608c-3.472-0.738-7.014-1.008-10.562-1.119
	c-2.885-0.09-5.762,0.113-8.623,0.442c-1.806,0.209-3.622,0.493-5.375,0.963c-4.352,1.167-8.477,2.936-12.411,5.124
	c-1.804,1.003-3.595,2.062-5.262,3.274c-3.448,2.51-6.5,5.473-9.283,8.701c-0.961,1.115-1.884,2.271-2.728,3.479
	c-2.359,3.376-4.229,7.025-5.81,10.821c-0.997,2.395-1.947,4.824-2.474,7.366c-0.729,3.511-1.081,7.087-1.074,10.671
	c0.005,2.805,0.171,5.617,0.427,8.412c0.169,1.842,0.494,3.692,0.979,5.477c1.246,4.588,3.131,8.931,5.5,13.048
	c1.063,1.849,2.222,3.661,3.503,5.364c2.157,2.869,4.641,5.46,7.353,7.814c1.35,1.172,2.725,2.329,4.183,3.361
	c3.361,2.381,7.023,4.231,10.815,5.82c2.394,1.002,4.824,1.95,7.363,2.479c3.476,0.723,7.015,1.001,10.564,1.101
	c2.85,0.079,5.693-0.099,8.516-0.441c1.944-0.234,3.913-0.506,5.781-1.061c2.479-0.735,4.889-1.717,7.292-2.686
	c1.49-0.6,2.91-1.372,4.309-2.043c0.094-0.571,0.092-1.048,0.253-1.462c0.465-1.191,0.14-2.269-0.37-3.337
	c-0.09-0.19-0.196-0.372-0.282-0.565c-0.234-0.521-0.31-1.025-0.173-1.624c0.288-1.271,0.094-2.539-0.538-3.671
	c-0.463-0.833-0.882-1.668-1.189-2.569c-0.18-0.529-0.419-1.046-0.694-1.533c-0.598-1.062-0.877-2.21-1.04-3.402
	c-0.041-0.299-0.103-0.675-0.3-0.859c-0.908-0.846-1.063-1.978-1.144-3.085c-0.057-0.785-0.399-1.172-1.025-1.548
	c-1.065-0.641-1.906-1.527-1.778-2.883c0.136-1.448-0.475-2.502-1.476-3.434c-0.357-0.333-0.682-0.702-0.994-1.078
	c-0.478-0.575-0.656-0.646-1.212-0.218c-1.706,1.313-3.592,2.323-5.48,3.336c-3.036,1.63-6.24,2.479-9.708,2.31
	c-2.35-0.115-4.704-0.193-7.056-0.185c-4.259,0.016-8.286,1.007-11.968,3.192c-1.78,1.057-3.506,2.207-5.236,3.347
	c-0.636,0.421-1.269,0.682-2.055,0.656c-1.525-0.047-3.006-0.251-4.406-0.895c-0.389-0.179-0.783-0.321-1.209-0.102
	c-1.658,0.857-3.291,0.458-4.881-0.173c-1.083-0.43-1.416-1.316-1.03-2.401c0.082-0.231,0.228-0.445,0.279-0.681
	c0.104-0.476,0.286-0.978,0.222-1.438c-0.259-1.855,0.019-3.656,0.544-5.412c0.71-2.375,1.979-4.414,4.017-5.902
	c0.936-0.684,1.863-1.387,2.853-1.982c1.52-0.916,2.438-2.243,3.095-3.859c1.582-3.899,4.124-7.086,7.481-9.607
	c1.487-1.116,3.026-2.168,4.575-3.198c1.45-0.965,2.58-2.152,3.108-3.851c0.114-0.366,0.317-0.704,0.47-1.058
	c0.639-1.483,1.302-2.958,1.424-4.602c0.013-0.17,0.083-0.343,0.154-0.5c0.685-1.519,1.747-2.709,3.194-3.525
	c0.385-0.218,0.851-0.344,1.293-0.397c0.869-0.102,1.749-0.125,2.624-0.177c1.11-0.066,2.121-0.373,3.038-1.044
	c1.316-0.962,2.501-2.049,3.458-3.369c1.091-1.506,2.177-3.019,3.222-4.558c0.391-0.576,0.658-1.237,0.987-1.856
	c0.288-0.541,0.242-1.008-0.078-1.565c-0.359-0.625-0.646-1.338-0.763-2.047c-0.646-3.921,2.134-7.837,7.265-6.676
	c0.483,0.109,0.881,0.082,1.307-0.12c1.445-0.688,2.942-0.836,4.516-0.512c1.026,0.21,1.946,0.61,2.721,1.292
	c2.557,2.25,2.555,5.917,0.814,8.2c-0.782,1.024-1.688,1.878-2.832,2.474c-1.14,0.593-1.912,1.512-2.439,2.668
	c-0.364,0.796-0.757,1.58-1.148,2.363c-0.33,0.662-0.244,1.021,0.382,1.408c0.208,0.129,0.433,0.231,0.655,0.338
	c0.884,0.427,1.782,0.83,2.654,1.282c1.736,0.897,3.561,1.473,5.513,1.649c0.45,0.041,0.905,0.134,1.333,0.276"/>
<g>
	<path fill="#FFFFFF" d="M332.464,259.23v44.226l13.612-13.527h12.967l-18.163,17.562l19.495,24.261h-12.539l-13.826-17.646
		l-1.546,1.545v16.102h-9.661V259.23H332.464z"/>
	<path fill="#FFFFFF" d="M365.14,272.54c0-1.688,0.615-3.148,1.846-4.379c1.231-1.23,2.705-1.846,4.422-1.846
		c1.746,0,3.234,0.615,4.466,1.846c1.23,1.202,1.846,2.676,1.846,4.422c0,1.747-0.616,3.235-1.846,4.465
		c-1.203,1.232-2.678,1.846-4.424,1.846c-1.746,0-3.234-0.614-4.465-1.846C365.755,275.818,365.14,274.315,365.14,272.54z
		 M376.261,289.929v41.823H366.6v-41.823H376.261z"/>
	<path fill="#FFFFFF" d="M386.899,289.929h9.662v3.735c1.774-1.858,3.348-3.134,4.723-3.82c1.402-0.715,3.063-1.073,4.98-1.073
		c2.547,0,5.21,0.831,7.987,2.49l-4.423,8.845c-1.833-1.316-3.622-1.976-5.367-1.976c-5.267,0-7.9,3.979-7.9,11.937v21.685h-9.662
		V289.929z"/>
	<path fill="#FFFFFF" d="M419.661,272.54c0-1.688,0.615-3.148,1.847-4.379c1.23-1.23,2.705-1.846,4.422-1.846
		c1.746,0,3.234,0.615,4.466,1.846c1.229,1.202,1.847,2.676,1.847,4.422c0,1.747-0.617,3.235-1.847,4.465
		c-1.202,1.232-2.678,1.846-4.423,1.846c-1.746,0-3.235-0.614-4.465-1.846C420.275,275.818,419.661,274.315,419.661,272.54z
		 M430.781,289.929v41.823h-9.66v-41.823H430.781z"/>
	<path fill="#FFFFFF" d="M441.42,289.929h9.704v3.867c3.377-3.351,7.186-5.025,11.421-5.025c4.866,0,8.66,1.531,11.378,4.595
		c2.348,2.604,3.521,6.855,3.521,12.751v25.635h-9.703v-23.328c0-4.117-0.573-6.962-1.718-8.534
		c-1.115-1.603-3.148-2.401-6.097-2.401c-3.206,0-5.481,1.056-6.828,3.172c-1.315,2.088-1.975,5.73-1.975,10.937v20.154h-9.704
		V289.929z"/>
	<path fill="#FFFFFF" d="M513.142,297.058l-7.985,4.252c-1.261-2.548-2.821-3.821-4.681-3.821c-0.888,0-1.646,0.293-2.275,0.879
		c-0.631,0.584-0.946,1.335-0.946,2.25c0,1.602,1.862,3.188,5.583,4.761c5.124,2.201,8.574,4.231,10.349,6.089
		c1.774,1.859,2.663,4.361,2.663,7.505c0,4.032-1.489,7.406-4.467,10.121c-2.892,2.574-6.384,3.861-10.477,3.861
		c-7.014,0-11.979-3.421-14.899-10.264l8.244-3.821c1.145,2.004,2.019,3.279,2.619,3.821c1.172,1.09,2.576,1.633,4.208,1.633
		c3.263,0,4.894-1.488,4.894-4.466c0-1.719-1.259-3.321-3.777-4.81c-0.975-0.485-1.947-0.958-2.921-1.417
		c-0.972-0.456-1.96-0.931-2.962-1.416c-2.806-1.375-4.781-2.749-5.926-4.123c-1.459-1.745-2.189-3.994-2.189-6.741
		c0-3.635,1.246-6.639,3.735-9.017c2.548-2.376,5.639-3.563,9.275-3.563C506.558,288.771,510.537,291.534,513.142,297.058z"/>
	<path fill="#FFFFFF" d="M555.352,289.929h9.703v41.823h-9.703v-4.38c-3.979,3.721-8.26,5.583-12.839,5.583
		c-5.782,0-10.562-2.09-14.341-6.27c-3.752-4.266-5.626-9.59-5.626-15.974c0-6.269,1.874-11.493,5.626-15.672
		c3.75-4.178,8.443-6.269,14.084-6.269c4.864,0,9.23,2.004,13.096,6.011V289.929z M532.423,310.712c0,4.008,1.073,7.271,3.219,9.79
		c2.205,2.548,4.981,3.822,8.33,3.822c3.579,0,6.47-1.23,8.673-3.692c2.205-2.548,3.308-5.782,3.308-9.706
		c0-3.921-1.103-7.153-3.308-9.704c-2.203-2.489-5.065-3.733-8.587-3.733c-3.32,0-6.096,1.259-8.329,3.777
		C533.523,303.814,532.423,306.961,532.423,310.712z"/>
	<path fill="#FFFFFF" d="M576.45,289.929h9.704v3.867c3.377-3.351,7.185-5.025,11.421-5.025c4.866,0,8.659,1.531,11.378,4.595
		c2.347,2.604,3.521,6.855,3.521,12.751v25.635h-9.703v-23.328c0-4.117-0.573-6.962-1.719-8.534
		c-1.116-1.603-3.148-2.401-6.097-2.401c-3.206,0-5.481,1.056-6.826,3.172c-1.317,2.088-1.976,5.73-1.976,10.937v20.154h-9.704
		V289.929z"/>
	<path fill="#FFFFFF" d="M622.174,326.943c0-1.604,0.587-2.991,1.76-4.166c1.175-1.174,2.577-1.76,4.208-1.76
		c1.633,0,3.035,0.586,4.209,1.76c1.173,1.175,1.76,2.577,1.76,4.209c0,1.66-0.587,3.077-1.76,4.251
		c-1.146,1.145-2.549,1.718-4.209,1.718c-1.688,0-3.105-0.573-4.25-1.718C622.746,330.092,622.174,328.659,622.174,326.943z"/>
	<path fill="#FFFFFF" d="M640.236,310.54c0-6.039,2.16-11.178,6.484-15.414c4.321-4.236,9.589-6.355,15.8-6.355
		c6.24,0,11.536,2.133,15.889,6.398c4.293,4.266,6.441,9.503,6.441,15.715c0,6.27-2.163,11.522-6.485,15.759
		c-4.351,4.208-9.689,6.312-16.015,6.312c-6.271,0-11.523-2.148-15.759-6.441C642.355,322.277,640.236,316.954,640.236,310.54z
		 M650.111,310.712c0,4.181,1.117,7.486,3.351,9.92c2.29,2.462,5.309,3.692,9.059,3.692c3.778,0,6.8-1.217,9.061-3.651
		c2.262-2.432,3.393-5.681,3.393-9.747c0-4.062-1.131-7.312-3.393-9.745c-2.29-2.462-5.31-3.692-9.061-3.692
		c-3.692,0-6.683,1.229-8.973,3.692C651.258,303.642,650.111,306.82,650.111,310.712z"/>
	<path fill="#FFFFFF" d="M692.672,289.929h9.66v3.735c1.774-1.858,3.35-3.134,4.723-3.82c1.402-0.715,3.064-1.073,4.98-1.073
		c2.549,0,5.211,0.831,7.987,2.49l-4.423,8.845c-1.833-1.316-3.622-1.976-5.367-1.976c-5.268,0-7.9,3.979-7.9,11.937v21.685h-9.66
		V289.929z"/>
	<path fill="#FFFFFF" d="M764.409,330.765c0,1.976-0.062,3.714-0.193,5.218c-0.128,1.501-0.308,2.826-0.535,3.971
		c-0.688,3.148-2.033,5.853-4.037,8.115c-3.779,4.351-8.974,6.526-15.586,6.526c-5.582,0-10.176-1.51-13.784-4.531
		c-3.721-3.104-5.867-7.392-6.439-12.858h9.704c0.372,2.062,0.986,3.649,1.845,4.767c2.004,2.604,4.924,3.906,8.761,3.906
		c7.07,0,10.605-4.321,10.605-12.967v-5.84c-3.837,3.923-8.259,5.884-13.268,5.884c-5.697,0-10.363-2.062-13.998-6.185
		c-3.665-4.179-5.497-9.403-5.497-15.672c0-6.097,1.704-11.278,5.11-15.544c3.665-4.522,8.502-6.783,14.513-6.783
		c5.267,0,9.646,1.96,13.14,5.883v-4.725h9.66V330.765z M755.136,310.948c0-4.058-1.09-7.302-3.264-9.73
		c-2.204-2.488-5.024-3.729-8.46-3.729c-3.663,0-6.555,1.357-8.674,4.071c-1.918,2.431-2.875,5.575-2.875,9.432
		c0,3.802,0.957,6.918,2.875,9.347c2.09,2.657,4.981,3.986,8.674,3.986c3.694,0,6.613-1.344,8.76-4.03
		C754.147,317.865,755.136,314.749,755.136,310.948z"/>
</g>
</svg>
