<?xml version="1.0" encoding="utf-8"?>
<!-- Generator: Adobe Illustrator 16.0.0, SVG Export Plug-In . SVG Version: 6.00 Build 0)  -->
<!DOCTYPE svg PUBLIC "-//W3C//DTD SVG 1.1//EN" "http://www.w3.org/Graphics/SVG/1.1/DTD/svg11.dtd">
<svg version="1.1" id="レイヤー_1" xmlns="http://www.w3.org/2000/svg" xmlns:xlink="http://www.w3.org/1999/xlink" x="0px"
y="0px" width="300px" height="300px" viewBox="0 0 300 300" enable-background="new 0 0 300 300" xml:space="preserve">
<g>
<path fill="#FFFFFF" d="M93.75,299.934c-2.292,0-4.583,0-6.875,0c0.675-0.762-0.162-1.035-0.501-1.404
c-3.095-3.375-5.687-7.041-7.729-11.191c-1.251-2.544-1.26-5.39-2.639-8.557c-0.722,0.986-1.192,1.538-1.563,2.151
c-5.01,8.277-12.202,13.878-21.146,17.404c-0.489,0.194-2.207-0.004-1.421,1.597c-2.5,0-5,0-7.499,0
c0.615-1.346-0.445-1.992-1.193-2.713c-3.48-3.354-6.874-6.793-9.527-10.857c-0.852-1.306-2.05-2.231-3.225-3.054
c-5.311-3.725-12.031-0.682-12.234,5.632c-0.12,3.712,0.247,7.485,1.804,10.992c-2.083,0-4.167,0-6.25,0
c-0.528-2.457-1.984-4.363-3.811-5.96c-3.266-2.854-5.892-6.471-9.939-8.401c0-1.874,0-3.748,0-5.622
c1.487-0.142,2.737,0.336,4.019,1.129c1.662,1.03,3.645,2.672,5.251,2.435c3.72-0.549,8.053-0.576,10.187-5.115
c-1.225-1.106-2.34-2.927-3.828-3.311c-5.186-1.342-7.299-4.735-7.477-9.708c-0.056-1.577-0.686-2.696-2.18-2.855
c-1.97-0.211-3.979-0.058-5.972-0.058c0-1.665,0-3.329,0-4.997c2.861-0.037,5.629,0.969,8.532,0.656
c1.997-0.216,3.137-1.093,3.344-3.113c0.366-3.592-0.271-7.027-1.166-10.52c-1.727-6.746-6.6-12.551-5.662-20.064
c-1.939,0.169-3.369-1.031-5.048-0.68c0-1.455,0-2.915,0-4.372c2.626,0.504,5.351-0.696,7.834,0.651
c2.254-3.201,4.747-5.791,8.04-7.643c0.78-0.438,2.36-0.763,2.219-2.159c-0.57-5.671,1.26-11.17,1.345-16.923
c-6.515-1.369-12.435-3.54-16.408-8.82c-1.257,0.534-1.577,2.049-3.03,1.797c0-3.748,0-7.496,0-11.239
c0.552,0.441,1.229,0.791,1.636,1.339c2.661,3.591,5.496,6.909,9.347,9.404c4.837,3.135,9.802,1.738,14.29,0.167
c3.757-1.314,6.869-4.466,10.274-6.795c1.155-0.788,1.662-1.912,1.302-3.21c-1.164-4.19-0.252-8.559-1.2-12.769
c-0.464-2.064,0.045-5.251-1.149-6.055c-2.357-1.587-5.184-2.907-8.418-2.913c-5.972-0.016-11.376,3.299-17.394,2.709
c-0.866-0.084-1.432,0.373-1.805,0.963c-1.88,2.97-5.353,4.523-6.882,7.789c0-3.744,0-7.492,0-11.24
c4.083-0.733,8.128-1.729,12.301-1.87c2.699-0.091,4.267-2.714,2.906-5.071c-3.37-5.835-8.819-8.35-15.207-9.294
c0-1.25,0-2.498,0-3.747c0.782,0,1.564,0,2.278,0c0.681-2.777,0.254-5.329,0.591-7.879c0.693-5.253,0.665-10.644-2.869-15.226
c0-4.788,0-9.576,0-14.364c1.891,2.955,2.827,6.285,3.737,9.615c0.526,1.923,0.622,3.933,1.798,5.7
c0.825,1.239,1.427,1.86,2.647,0.553c1.622-1.736,3.677-2.886,5.795-3.818c5.317-2.338,10.693-4.543,16.066-6.75
c2.215-0.911,3.49-2.145,3.813-4.833c0.549-4.553,1.05-9.174,3.505-13.325c1.897-3.21,2.066-6.803,0.451-10.216
c-2.058-4.346-4.364-8.576-6.531-12.871c-1.152-2.285-2.717-3.433-5.516-3.512c-2.767-0.08-4.658,1.192-6.581,2.647
c-7.001,5.297-14.879,9.752-18.216,18.641C0.854,79.117,0.333,79.271,0,79.495c0-4.163,0-8.326,0-12.489
c2.696-0.315,4.293-2.513,6.421-3.793c5.063-3.044,9.6-6.808,14.011-10.714c0.582-0.515,1.432-0.944,1.432-1.915
c0.005-4.341,0.039-8.682-0.053-13.021c-0.015-0.715-0.859-0.921-1.587-1.206C13.714,33.809,6.933,32.844,0,32.66
c0-1.457,0-2.915,0-4.372c5.386,0.897,10.891,1.016,16.189,2.494c5.803,1.618,10.833,0.954,14.813-4.267
c1.261-1.655,1.856-2.826,0.564-4.461c-3.183-4.027-6.551-7.902-10.245-11.47c-3.08-2.974-6.37-5.77-6.946-10.398
c2.291,0,4.584,0,6.875,0c-0.615,1.485,0.601,2.144,1.394,2.931c2.097,2.086,3.976,4.332,5.613,6.801
c2.843,4.289,5.915,8.406,9.531,12.07c2.625-2.353,5.33-4.527,8.664-5.487c1.723-0.495,1.993-1.579,1.618-2.723
c-1.451-4.431-0.689-9.237-2.445-13.593c1.667,0,3.333,0,5.001,0c0.26,5.385,1.894,10.609,1.877,16.026
c-0.002,0.865,0.649,1.369,1.226,1.664c1.515,0.774,2.45,2.169,3.737,3.159c1.915,1.474,3.919,2.943,6.51,2.864
c2.688-0.082,5.286,0.467,7.752,1.334c2.65,0.931,5.273,1.32,7.741,0.046c2.251-1.162,4.115-2.568,5.192-5.408
c1.979-5.218,4.884-10.086,7.952-14.715c-1.599-1.77-3.044-3.37-4.488-4.97c5.625,0,11.25,0,16.875,0
c0.233,1.282-0.681,2.898,0.51,3.83c2.803,2.189,4,5.627,6.576,7.98c2.298,2.098,4.638,4.214,6.569,6.633
c2.048,2.566,4.672,2.655,7.223,1.974c4.683-1.248,9.402-1.994,14.192-1.608c2.931,0.236,4.069-1.463,4.756-3.562
c0.682-2.079,1.024-4.246,1.89-6.315c0.618-1.481,0.348-3.168-1.201-4.418c-1.723-1.39-3.268-3-4.891-4.514
c5.625,0,11.25,0,16.875,0c-2.776,2.098-5.34,4.332-5.92,8.061c-0.279,1.788-0.425,3.674-1.133,5.297
c-0.729,1.669-0.213,2.166,1.135,3.067c4.429,2.964,9.774,3.312,14.519,5.372c4.162,1.808,8.151,3.729,10.749,7.601
c1.251,1.864,2.555,2.32,4.626,1.349c2.747-1.291,5.019-2.973,7.178-5.205c6.959-7.187,9.917-15.773,10.095-25.542
c1.669,0,3.335,0,5.001,0c-1.206,2.349-0.717,4.983-1.126,7.463c-1.374,8.35-5.181,15.376-10.307,21.818
c3.474,0.807,6.946,1.019,10.771-0.392c4.779-1.764,9.477-3.772,14.314-5.364c7.886-2.595,9.255-3.938,9.486-13.088
c0.021-0.795-0.223-1.609,0.35-2.387c1.76-2.391,1.77-5.273,2.136-8.05c1.461,0,2.919,0,4.377,0
c-0.197,3.759-1.752,7.358-1.265,11.205c0.233,1.851-0.039,3.588-1.218,5.19c-1.206,1.641-0.907,3.17,0.652,4.604
c2.507,2.303,4.754,4.953,7.84,6.494c4.565,2.28,9.02,5.021,14.585,3.145c5.42-1.827,10.928-3.376,16.537-4.586
c2.125-0.458,4.043-2.244,4-4.51c-0.062-3.202-0.937-6.381-1.369-9.583c-0.553-4.089-1.71-8.023-2.888-11.957
c2.083,0,4.167,0,6.25,0c0.875,8.314,3.021,16.453,3.139,24.779c6.959,0.496,13.483,1.843,19.985,3.323c0,1.249,0,2.498,0,3.747
c-4.929-0.757-9.858-1.513-15.666-2.405c11.672,10.95,10.636,25.604,13.315,39.118c0.921-0.438,1.637-0.778,2.351-1.119
c0,5.413,0,10.825,0,16.237c-0.331-0.427-0.826-0.388-0.907,0.048c-0.593,3.16-1.416,6.333-0.765,9.552
c0.084,0.422-0.034,2.321,1.672,1.641c0,4.58,0,9.159,0,13.739c-1.487-3.858-2.871-7.759-4.508-11.552
c-0.763-1.769-2.093-2.497-4.362-1.891c-3.776,1.009-7.615,1.881-11.129,3.543c-2.64,1.249-6.357,1.667-6.786,5.514
c-0.226,2.021-0.522,4.047-0.667,6.067c-0.58,8.157,0.922,16.261,0.558,24.616c4.136-1.014,7.934-2.408,11.965-2.557
c5.021-0.185,9.974,0.572,14.93,1.237c0,1.458,0,2.915,0,4.372c-1.374,0.164-2.519-0.586-3.753-0.961
c-5.175-1.571-8.646-0.272-9.028,4.334c-0.32,3.874-3.115,8.078,1.82,11.915c4.757,3.699,5.274,4.507,10.961,1.571
c0,4.373,0,8.746,0,13.114c-1.229,0.582-1.229,0.582-1.248,2.035c-0.027,1.734-0.027,1.734,1.248,2.338c0,2.705,0,5.412,0,8.116
c-4.17-3.809-7.129-8.079-4.849-14.064c0.881-2.311-0.612-3.185-2.185-3.783c-1.839-0.701-3.446-1.619-4.806-3.025
c-0.345-0.359-0.736-0.766-1.188-0.917c-6.194-2.093-12.019-0.201-15.647,5.366c-1.48,2.271-4.533,3.905-3.783,7.245
c0.594,2.644,0.322,5.315,0.661,7.936c0.275,2.12,1.031,4.107,2.342,6.064c1.818,2.717,4.701,3.919,6.77,6.097
c2.771,2.918,4.964,3.446,7.726,0.512c4.261-4.53,9.526-7.443,14.959-10.18c0,1.668,0,3.331,0,4.997
c-3.658,1.322-6.59,3.736-9.664,6.045c-4.758,3.568-8.623,7.312-7.232,13.958c0.167,0.798,0.036,1.66,0.02,2.491
c-0.049,2.322,1.093,3.968,3.189,4.681c2.505,0.849,4.719,2.25,7.115,3.273c2.104,0.899,4.209,1.915,6.572,2.023
c0,1.249,0,2.498,0,3.748c-2.178,0-4.395,0.259-6.52-0.073c-2.197-0.344-3.258,0.88-4.043,2.35
c-3.093,5.781-6.443,11.526-5.074,18.546c0.098,0.499,0.073,1.041,0.003,1.552c-0.565,4.017,1.322,7.463,2.649,11.012
c0.445,1.194,1.598,1.672,3.035,1.619c3.312-0.114,6.633-0.035,9.949-0.035c0,1.663,0,3.331,0,4.995
c-2.001-0.623-3.001,1.229-4.36,1.962c-4.817,2.598-9.544,5.483-13.139,9.694c-2.077,2.437-4.979,4.905-2.881,8.665
c6.791-1.682,13.563-2.697,20.38-3.461c0,1.668,0,3.331,0,4.997c-8.385,0.517-16.453,2.616-24.431,5.061
c-2.207,0.676-2.273,2.48-0.96,4.145c1.362,1.727,2.127,3.612,2.267,5.781c-2.294,0-4.584,0-6.876,0
c0.151-1.779-1.044-3.222-1.244-4.911c-0.82-6.887-5.124-10.912-12.105-11.338c-0.596-0.035-1.184-0.227-1.768-0.375
c-5.75-1.474-9.124-0.223-12.531,4.488c-1.014,1.402-2.285,2.777-4.201,2.725c-1.577-0.043-2.199,1.192-2.242,2.047
c-0.123,2.563-1.336,4.852-1.532,7.364c-1.46,0-2.917,0-4.376,0c0.144-1.102,0.29-2.286,0.291-3.304
c0-1.866,0.777-5.021-1.824-5.267c-4.365-0.409-8.715-2.354-13.194-0.792c-4.964,1.73-10.029,3.359-11.522,9.362
c-1.666,0-3.332,0-5.001,0c0.43-1.107,0.749-2.278,1.308-3.317c1.231-2.297,0.793-3.919-1.74-4.746
c-2.094-0.684-4.209-1.314-6.456-1.309c-4.768,0.016-9.603,0.515-14.287-0.106c-8.374-1.111-13.104,4.868-18.952,8.77
c-0.35,0.233-0.09,0.501,0.13,0.709c-3.127,0-6.25,0-9.375,0c1.792-4.624,5.764-6.766,9.907-8.745
c2.601-1.242,4.907-5.843,3.764-8.354c-1.256-2.762-1.27-5.546-1.126-8.374c0.103-2.035-1.085-3.617-2.521-3.744
c-7.665-0.68-13.339-5.771-20.018-8.591c-2.359-0.992-4.387-0.632-5.721,1.444c-1.67,2.599-3.899,4.846-4.843,7.928
c-0.9,2.938-2.065,5.795-3.052,8.514c1.825,3.326,4.379,5.506,7.817,7.168c4.094,1.98,8.269,4.318,10.316,8.859
c0.774,1.719,2.243,2.744,3.603,3.896c-2.5,0-5,0-7.5,0c0.625-1.342-0.417-2.029-1.189-2.699c-1.913-1.658-3.992-3.131-5.851-4.844
c-1.725-1.588-3.67-1.919-5.9-1.849c-6.531,0.208-12.365,2.276-17.427,6.38c-1.164,0.943-3.182,0.986-3.383,3.012
c-3.542,0-7.083,0-10.625,0c3.944-2.104,7.696-4.546,11.585-6.726c7.849-4.402,14.254-9.805,16.086-19.187
c0.139-0.715,0.708-1.593-0.142-1.773c-3.076-0.641-5.066-3.208-7.942-4.187c-4.265-1.451-8.779-1.896-13.001-3.634
c-3.995-1.646-8.209-2.833-12.685-2.615c-3.192,0.155-5.269,2.403-7.699,3.899c-1.454,0.898-0.374,2.849-0.547,4.314
c-0.146,1.229,0.109,2.508-0.055,3.731c-0.904,6.746,1.333,12.49,5.127,17.949C88.498,294.791,91.678,296.848,93.75,299.934z
M138.096,153.792c1.772-0.458,3.136-1.406,4.307-3.178c1.651-2.499,4.021-4.454,6.515-6.21c3.965-2.791,7.095-6.07,6.11-11.544
c-0.199-1.106-0.035-2.28-0.027-3.423c0.046-6.674,0.222-13.349-1.208-19.942c-0.225-1.027-0.556-1.55-1.52-2.003
c-3.804-1.79-7.682-3.483-11.283-5.63c-8.355-4.983-16.448-3.721-24.362,0.768c-3.919,2.223-7.32,5.458-11.382,7.294
c-2.863,1.294-3.178,3.01-2.631,5.23c0.521,2.106,1.273,4.426,2.664,5.999c6.07,6.865,7.652,15.76,11.135,23.162
C123.567,148.067,131.877,148.214,138.096,153.792z M39.212,157.169c0.873,5.223,1.404,10.289,1.582,15.414
c0.077,2.214-0.009,5.3,2.138,6.679c2.823,1.815,5.29,3.89,6.963,6.689c2.168,3.624,6.317,5.315,8.27,9.232
c1.051,2.111,3.591,3.243,6.229,2.599c6.43-1.569,12.579-3.393,18.029-7.758c5.342-4.276,11.296-7.854,16.459-12.406
c2.238-1.975,4.735-3.868,6.027-6.803c-3.918-2.901-8.912-3.962-12.214-7.331c-3.533-3.603-8.231-5.031-12.173-7.793
c-3.295-2.311-6.669-4.511-10.333-6.225c-1.138-0.532-2.433-1.139-3.502-0.523c-1.896,1.091-4.008,1.311-5.999,1.98
C53.763,153.256,46.991,156.126,39.212,157.169z M6.861,130.943c0.063,2.36-0.473,4.115,1.273,5.023
c4.424,2.298,8.211,5.529,12.054,8.589c3.977,3.168,8.688,4.014,13.22,5.555c4.663,1.586,9.339,1.93,14.204,0.86
c3.657-0.803,6.935-2.63,10.567-3.462c1.557-0.357,2.357-1.294,2.569-3.243c0.329-3.049,0.826-6.173,2.317-8.999
c0.409-0.774,0.906-1.958,0.602-2.581c-2.823-5.768-1.657-13.351-9.906-16.709c-4.741-1.93-9.538-5.218-13.546-9.032
c-2.278-2.167-4.821-3.634-8.033-1.245c-1.244,0.926-2.905,1.3-4.388,1.895c-5.476,2.197-11.258,3.773-15.976,7.53
c-1.718,1.368-4.062,2.549-4.242,4.974C7.285,123.99,7.741,127.932,6.861,130.943z M183.929,228.104
c2.31,0.02,4.485,0.546,5.593-2.727c2.269-6.697,6.312-12.769,7.173-19.974c0.271-2.291,1.437-4.662-0.382-6.858
c-5.862-7.079-12.286-13.558-19.957-18.71c-1.616-1.083-3.189-1.371-5.117-0.478c-2.452,1.144-5.011,1.911-7.85,2
c-5.764,0.175-8.797,2.649-9.999,8.236c-0.624,2.899-0.994,5.467-3.699,7.51c-2.232,1.688-1.762,5.968-0.592,8.757
c0.915,2.183,2.629,3.909,3.301,6.051c0.835,2.667,0.821,5.589,1.396,8.354c0.378,1.816,1.15,3.204,3.513,3.573
c3.869,0.599,7.638,1.896,11.575,2.148C173.962,226.316,178.805,228.24,183.929,228.104z M280.626,145.229
c0-6.151-1.114-6.939-6.693-5.225c-0.191,0.06-0.412,0.023-0.611,0.066c-8.649,1.867-17.296,3.732-25.941,5.607
c-5.338,1.159-10.628,2.547-16.167,2.553c-2.244,0.003-3.323,1.846-2.247,4.093c2.619,5.465,1.804,10.763-0.08,16.179
c-0.963,2.77-1.933,5.681-1.325,8.646c0.602,2.948,0.46,5.775,0.223,8.751c-0.159,2.01-0.256,4.715,2.136,6.28
c2.002,1.312,4.683,1.359,6.271,3.43c0.11,0.144,0.657,0.112,0.893-0.025c1.735-1.014,3.735-1.785,5.104-3.177
c3.971-4.034,9.033-6.508,13.447-9.889c3.037-2.323,5.342-5.358,6.179-9.038c2.198-9.652,7.991-16.715,15.688-22.395
C279.81,149.382,281.193,147.663,280.626,145.229z M48.498,295.962c1.365-0.939,2.982-1.621,4.609-2.354
c6.142-2.771,12.178-6.156,15.423-12.195c1.715-3.191,4.11-5.046,6.749-6.844c1.242-0.847,1.674-1.558,1.611-2.903
c-0.066-1.449-0.045-2.909-0.005-4.362c0.03-1.104-0.139-1.91-1.377-2.4c-2.304-0.918-3.767-3.066-5.852-4.324
c-4.965-2.999-9.541-6.724-15.993-6.308c-5.697,0.365-11.438,0.106-17.158,0.067c-4.597-0.032-9.021-0.022-13.37,2.327
c-2.542,1.371-4.957,2.988-7.55,4.271c-1.952,0.961-3.569,2.19-3.064,4.688c0.467,2.304,1.079,4.382,3.962,5.09
c2.058,0.503,3.958,1.562,5.277,3.646c0.828,1.307,2.392,2.247,4.288,2.54c3.208,0.495,6.17,1.77,8.52,4.174
C39.308,285.932,42.977,291.777,48.498,295.962z M59.663,65.804c-2.136-0.298-4.338,0.443-6.783,1.548
c-5.08,2.295-6.73,7.316-9.317,11.262c-1.573,2.4-2.158,6.093-3.264,9.203c-1.201,3.381-1.526,7.08-2.148,10.655
c-0.174,0.995-0.245,2.136,0.832,2.791c6.938,4.217,13.068,9.671,20.707,12.878c2.271,0.954,3.672,0.872,5.568-0.167
c2.542-1.393,5.067-3.085,7.818-3.756c3.593-0.876,5.835-2.474,7.082-6.067c1.639-4.723,2.233-9.582,3.044-14.454
c1.259-7.569,0.561-13.896-7.271-17.904C70.835,69.185,66.4,65.165,59.663,65.804z M123.99,28.211
c0.336,0.693,0.864,1.502,1.045,2.562c0.701,4.063,1.633,8.088,2.305,12.156c0.953,5.777,2.625,11.486,2.54,17.364
c-0.032,2.178,0.608,4.054,1.053,6.025c0.284,1.257,1.671,2.458,2.776,2.181c6.111-1.53,13.138,0.529,18.351-4.605
c0.61-0.601,1.56-0.887,2.383-1.242c4.656-2.006,8.336-5.854,13.412-6.495c-0.164-1.355-0.38-2.145-0.337-2.918
c0.332-5.884,1.958-11.455,4.393-16.777c0.809-1.771,0.594-2.892-0.775-4.306c-6.207-6.411-13.997-9.283-22.613-9.356
c-6.288-0.052-12.578,1.293-18.887,1.661C126.841,24.624,124.566,24.857,123.99,28.211z M42.141,72.724
c1.521-1.829,2.317-3.887,3.985-5.29c5.198-4.374,11.112-7.651,16.956-11.027c3.7-2.137,7.27-4.433,10.308-7.466
c0.951-0.949,1.891-2.06,1.52-3.476c-0.617-2.357-0.96-4.722-1.216-7.144c-0.366-3.465-1.615-6.203-5.348-7.837
c-5.264-2.302-11.339-3.116-15.452-7.797c-0.695-0.792-1.645-1.474-2.582-2.114c-1.121-0.764-1.794-0.632-2.828-0.095
c-5.653,2.937-10.124,7.436-15.018,11.361c-1.57,1.259-3.702,2.037-4.111,4.583c-0.827,5.156-1.368,10.138,1.31,15.056
c2.045,3.759,5.576,6.378,7.263,10.413C38.43,65.478,39.737,69.196,42.141,72.724z M261.275,187.546
c-3.25-0.214-6.133,0.499-8.608,2.105c-3.932,2.548-7.551,5.526-10.883,8.859c-1.653,1.654-1.88,3.817-1.188,5.406
c2.107,4.865,4.305,9.729,7.208,14.214c3.342,5.154,7.926,9.292,11.606,14.155c2.437,3.216,5.507,4.884,9.376,3.835
c1.837-0.495,3.393-0.136,4.97,0.192c4.361,0.905,5.737,0.074,6.912-4.175c0.745-2.69,1.703-5.362,3.721-7.464
c2.536-2.645,2.42-2.819-0.305-5.255c-1.928-1.725-4.46-3.521-5.111-5.754c-0.997-3.422-1.978-7.09-1.465-10.815
c0.45-3.295-1.605-5.322-3.618-7.408c-2.349-2.434-5.491-3.848-7.923-6.115C264.464,187.925,263.051,187.157,261.275,187.546z
M82.366,112.631c-6.429-0.766-10.965,2.669-14.627,7.647c-0.458,0.623-1.069,1.396-0.401,2.7
c2.756,5.382,1.021,11.264,1.492,16.917c0.145,1.733-1.204,4.339,1.01,5.023c5.208,1.609,9.34,4.949,13.866,7.653
c3.134,1.874,6.307,2.49,9.806,1.098c4.082-1.626,8.28-2.979,12.291-4.759c1.986-0.882,5.058-0.208,5.869-2.454
c0.766-2.117-1.286-4.292-1.697-6.554c-0.018-0.094-0.113-0.171-0.152-0.265c-2.292-5.417-3.9-11.065-7.793-15.832
c-2.087-2.556-4.134-5.834-3.856-9.561c0.233-3.138-1.647-3.217-3.724-2.848C90.519,112.094,86.578,112.548,82.366,112.631z
M224.143,195.652c-2.488-0.177-4.758,0.617-7.079,1.386c-4.219,1.402-7.647,4.343-11.875,5.795
c-1.947,0.667-3.798,2.096-3.454,5.119c0.209,1.834-0.621,3.883-1.34,5.805c-3.107,8.281-8.731,15.868-7.302,25.458
c0.042,0.261-0.276,0.56-0.307,0.851c-0.278,2.814-1.556,5.428-1.569,8.313c-0.007,1.684,1.031,2.274,2.241,2.064
c2.049-0.354,4.081-0.986,6.02-1.757c4.84-1.917,9.622-3.919,14.764-5.005c3.897-0.823,6.795-3.379,8.044-7.098
c1.614-4.811,2.898-9.767,3.905-14.744c1.109-5.496,1.977-10.898,4.814-15.994C233.63,201.136,229.581,195.668,224.143,195.652z
M183.228,177.59c4.344-0.055,7.394-1.251,9.423-4.775c2.352-4.086,5.203-7.893,7.466-12.025c2.464-4.504,6.764-7.484,9.186-12.067
c2.753-5.211,2.686-9.843-1.598-12.299c-4.429-2.542-8.136-5.978-12.165-8.994c-1.578-1.18-2.2-1.163-3.722-0.208
c-6.188,3.877-10.059,10.18-15.673,14.671c-2.087,1.671-4.086,3.557-6.569,4.232c-2.684,0.729-2.219,2.183-1.779,3.928
c0.684,2.71,1.954,5.213,2.272,8.083c0.569,5.125,1.964,10.164,5.23,14.211C177.378,174.921,179.425,178.329,183.228,177.59z
M148.75,186.153c0.001-5.473-1.127-6.801-5.578-7.323c-2.771-0.328-5.033-1.316-6.89-3.412c-1.204-1.359-2.59-2.923-4.5-2.812
c-4.694,0.277-9.376-1.554-14.051-0.059c-4.07,1.301-8.821,1.023-12.094,4.145c-4.169,3.98-8.281,7.995-12.948,11.388
c-1.148,0.835-1.254,1.383,0.089,2.027c1.35,0.645,2.665,1.363,4.015,2.01c5.656,2.709,7.628,9.299,13.262,12.268
c2.932,1.546,4.905,3.706,8.893,2.647c7.951-2.111,15.951-3.707,22.687-8.949C146.083,194.623,148.205,190.162,148.75,186.153z
M255.252,58.492c-3.019,2.626-5.205,5.094-5.981,8.727c-0.424,1.987-1.231,3.884-2.717,5.625
c-2.653,3.111-2.425,4.517,0.439,7.623c1.204,1.305,2.066,2.75,2.87,4.27c1.738,3.277,3.324,6.639,5.192,9.838
c1.041,1.785,2.023,4.126,4.458,4.212c5.297,0.188,10.6-0.521,15.552-2.293c5.566-1.992,10.91-4.604,16.904-5.114
c1.577-0.135,1.797-1.039,1.791-2.322c-0.024-4.981-0.011-9.963-0.011-14.881C280.729,68.985,266.327,67.782,255.252,58.492z
M84.512,227.532c0.411,1.344,1.366,2.751,1,3.565c-1.752,3.913,0.55,6.964,2.468,9.457c4.114,5.351,6.446,10.517,2.04,16.717
c1.836,0.542,3.47,0.196,5.118,0.493c5.061,0.911,9.661,3.321,14.682,4.239c4.084,0.746,7.959,1.848,11.36,4.382
c1.26,0.939,2.619,0.646,3.868-0.479c2.311-2.084,2.993-5.319,5.368-7.345c0.464-0.396-0.126-0.888-0.242-1.341
c-0.718-2.841-1.276-5.697-1.484-8.647c-0.19-2.695-0.552-5.851-2.927-7.335c-3.385-2.114-5.088-5.61-7.912-8.131
c-1.295-1.153-3.188-1.729-3.924-3.369c-1.385-3.084-4.048-5.146-5.723-8.003c-1.248,0.765-2.003,1.721-3.111,2.322
c-3.133,1.697-6.413,2.239-9.94,2.241C91.638,226.303,87.97,225.489,84.512,227.532z M187.342,233.907
c-2.416-0.602-5.278-1.592-8.221-1.986c-6.925-0.933-13.856-1.845-20.713-3.204c-4.681-0.933-7.465,0.046-8.946,4.293
c-2.879,8.264-6.899,16.184-7.987,24.804c9.764,6.249,18.844,9.294,30.643,3.165C183.751,254.939,187.748,246.434,187.342,233.907z
M196.058,100.914c2.646-0.572,1.736,2.579,3.971,3.013c6.418,1.243,12.868,1.278,19.343,1.167
c10.116-0.173,20.303,0.943,30.214-2.421c4.067-1.38,4.368-1.487,1.943-5.132c-0.553-0.832-0.998-1.734-1.546-2.57
c-2.91-4.437-4.489-9.725-8.706-13.346c-1.156-0.994-2.175-1.654-3.784-1.539c-3.898,0.278-7.75,0.027-11.195-2.131
c-0.886-0.556-1.813-0.311-2.716-0.314c-3.802-0.016-7.451-0.812-10.806-2.529c-2.713-1.388-5.443-1.402-8.278-1.093
c-0.032,0.224-0.085,0.34-0.055,0.428c0.098,0.283,0.267,0.546,0.335,0.834c1.731,7.481,1.897,14.567-4.721,20.135
C198.516,96.711,196.882,98.051,196.058,100.914z M210.361,33.219c2.953,4.126,4.949,7.989,5.688,12.256
c0.555,3.229,1.781,6.103,2.947,9.097c1.243,3.183,2.857,6.186,4.072,9.353c2.121,5.537,5.422,9.491,11.591,10.687
c4.001,0.775,5.634,0.443,7.141-3.027c2.389-5.495,4.553-11.082,7.22-16.462c0.834-1.681,0.089-3.775-0.865-5.072
c-2.436-3.313-3.685-6.819-3.86-10.918c-0.084-1.949-0.104-4.436-2.764-5.128c-3.039-0.792-5.426-2.53-7.68-4.632
c-2.219-2.072-5.301-4.713-7.786-3.887C220.641,27.283,215.687,30.493,210.361,33.219z M169.443,286.689
c2.69-1.194,5.49-1.006,8.295-0.989c6.03,0.031,12.066-0.221,18.082,0.072c1.77,0.084,3.223,1.12,5.225-0.104
c1.754-1.072,2.841-2.139,3.424-4.078c0.51-1.713,1.441-3.304,2.225-4.932c3.195-6.649,6.741-13.158,8.07-20.54
c0.305-1.695,0.576-3.41,2.082-4.575c1.109-0.862,0.537-1.719,0.077-2.711c-0.611-1.325-1.587-0.771-2.324-0.526
c-6.649,2.21-13.364,4.261-19.878,6.818c-7.271,2.856-14.183,6.463-21.064,10.23c-5.308,2.909-8.323,5.63-6.147,11.771
C168.589,280.166,167.411,283.661,169.443,286.689z M219.199,71.273c0.779-2.477-1.135-4.095-1.822-5.985
c-0.75-2.053-0.627-4.169-1.241-6.174c-0.963-3.144-3.062-5.859-3.604-9.148c-0.525-3.185-1.503-6.233-2.565-9.252
c-1.857-5.275-3.239-6.151-8.912-6.191c-3.902-0.027-7.926,0.615-11.647-0.736c-1.865-0.678-3.174-0.091-4.5,0.609
c-2.042,1.078-3.924,2.296-6.3,2.772c-1.44,0.289-2.558,1.3-3.277,3.262c-1.502,4.098-0.267,8.369-1.592,12.358
c-0.428,1.29-0.855,2.638,0.737,3.33c4.511,1.961,8.569,4.75,13.152,6.653c7.193,2.987,14.745,4.61,22.205,6.491
C212.853,70.024,215.8,71.937,219.199,71.273z M23.8,214.925c-1.243,0.421-2.665-0.521-3.767,0.633
c-1.948,2.043-4.198,3.672-6.569,5.208c-1.555,1.01-3.031,2.28-2.236,4.685c2.747,8.333,3.841,17.041,5.583,25.596
c0.38,1.872,1.538,2.289,2.743,1.941c2.773-0.806,5.754-1.54,8.076-3.136c7.918-5.443,16.223-10.454,22.309-18.191
c2.952-3.756,4.639-7.954,4.999-12.638c0.133-1.746-0.437-3.38-2.903-3.424C42.616,215.438,33.177,216.239,23.8,214.925z
M94.083,44.524c3.478-0.169,8.204,0.191,12.946,0.554c2.999,0.229,5.796,0.413,8.292,2.414c1.112,0.892,2.755,1.054,4.204,0.309
c1.64-0.844,3.302-2.074,3.159-3.945c-0.284-3.716-0.745-7.483-1.711-11.073c-3.21-11.924-12-19.001-22.183-24.768
c-1.653-0.936-2.842-0.135-3.646,1.191c-1.194,1.969-2.157,4.075-3.288,6.084c-2.61,4.642-4.116,9.974-7.682,13.978
c-3.086,3.465-3.675,7.471-4.181,11.682c-0.317,2.637,1.221,3.495,3.44,3.553C86.554,44.585,89.68,44.524,94.083,44.524z
M293.328,69.824c-0.769-4.407-1.928-8.16-1.981-11.928c-0.165-11.281-4.854-20.449-12.415-28.394
c-0.97-1.02-2.414-2.085-3.935-0.327c-0.427,0.493-1.195,0.778-1.863,0.955c-8.034,2.138-15.826,5.26-24.22,5.769
c-0.329,1.703-0.126,3.122,0.544,4.583c1.199,2.613,2.728,5.056,3.531,7.891c0.665,2.345,1.408,5.666,3.134,6.529
c5.545,2.776,10.652,6.473,16.628,8.39C279.405,65.428,286.292,66.808,293.328,69.824z M281.021,254.871
c0.084-4.187-2.097-7.892-2.396-11.993c-0.055-0.75-0.882-1.119-1.706-1.016c-1.384,0.177-2.561-0.346-3.793-0.897
c-1.538-0.684-3.228-0.86-4.809-0.157c-3.478,1.548-6.927,3.169-10.356,4.823c-2.772,1.335-4.729,3.523-5.851,6.349
c-1.587,3.995-3.158,8.009-4.464,12.101c-1.081,3.387-1.723,6.881-1.447,10.519c0.14,1.845,1.003,2.68,2.605,2.442
c6.187-0.918,11.52,0.752,16.469,4.527c1.34,1.02,3.493,2.635,5.375,0.128c3.525-4.69,6.9-9.52,10.743-13.941
c2.752-3.162,3.286-6.038,0.943-9.495C281.651,257.25,280.985,256.163,281.021,254.871z M152.871,68.185
c5.518,2.541,10.204,4.736,14.925,6.859c2.789,1.254,3.765,3.85,2.531,6.034c-2.466,4.366-1.127,8.821-1.612,13.102
c4.879,1.672,9.636,2.883,13.965,5.293c3.25,1.809,7.415,0.802,9.758-2.078c1.421-1.747,2.745-3.66,4.476-5.052
c5.612-4.517,4.929-10.369,3.661-16.29c-0.651-3.028-2.759-4.969-5.786-5.943c-2.929-0.943-5.746-2.265-8.707-3.078
c-5.066-1.39-8.706-5.362-13.523-7.152c-0.667-0.249-1.145-0.907-2.065-0.591C164.472,61.354,159.275,64.975,152.871,68.185z
M195.151,121.826c1.723,0.284,2.678,1.746,3.965,2.755c3.641,2.856,7.152,5.818,11.09,8.357c2.575,1.658,4.89,3.92,7.707,5.491
c2.261,1.259,3.686,1.162,5.558-0.796c4.492-4.697,8.552-9.87,14.336-13.229c4.534-2.632,6.758-7.537,10.159-11.286
c1.333-1.471,2.779-3.599,3.309-5.94c-0.425-0.083-0.756-0.255-1.021-0.184c-7.65,2.068-15.472,2.498-23.343,2.477
c-1.457-0.004-2.985-0.277-4.357,0.067c-5.763,1.446-11.403,0.035-17.084-0.481c-4.3-0.391-8.546-2.563-12.918-0.437
C194.024,112.915,194.79,117.273,195.151,121.826z M123.887,60.846c-3.077-2.32-4.353-5.816-7.425-7.824
c-3.363-2.198-6.65-4.134-10.789-4.129c-7.184,0.01-14.367-0.024-21.551,0.017c-2.921,0.017-5.741,0.311-7.611,3.11
c-0.599,0.896-1.62,1.484-2.572,2.12c-3.327,2.222-3.555,6.536-0.836,9.428c2.702,2.876,5.865,4.891,9.384,6.717
c3.033,1.574,5.907,2.35,9.246,2.381c9.009,0.089,18.015,0.363,27.022,0.602c0.967,0.025,1.928,0.293,3.142,0.489
C121.637,69.312,122.134,65.003,123.887,60.846z M222.913,190.372c0.887-2.63-0.52-5.073-0.432-7.637
c0.245-7.17,1.207-14.293,1.549-21.469c0.229-4.744-0.623-8.655-2.574-12.68c-0.474-0.977-0.381-2.579-1.918-2.199
c-1.542,0.379-3.651-0.202-4.567,1.433c-4.251,7.603-10.555,13.728-15.016,21.203c-2.117,3.546-3.871,7.387-7.341,10.139
c-2.516,1.993-1.342,6.24,0.938,8.646c3.04,3.204,7.102,5.303,9.517,9.137C209.749,194.731,216.367,192.541,222.913,190.372z
M38.858,247.465c0.917,0.652,1.313,1.179,1.732,1.198c6.236,0.268,12.552-0.355,18.659,1.352c3.506,0.98,7.333,0.932,10.199,3.992
c4.987,5.327,9.231,5.626,15.311,1.614c4.004-2.644,4.554-5.406,1.773-9.429c-2.877-4.169-5.801-8.074-5.521-13.769
c0.124-2.499-0.779-6.182-4.338-7.215c-1.971-0.57-3.736-1.503-5.475-2.485c-3.233-1.825-6.722-1.483-10.187-1.461
c-1.136,0.008-1.35,0.771-1.697,1.758c-1.929,5.5-4.779,10.415-9.016,14.56C46.788,241.014,43.181,244.318,38.858,247.465z
M162.015,138.672c1.712,0.473,3.175,1.392,3.971,2.812c0.717,1.278,1.193,1.218,2.351,0.654c2.019-0.985,3.876-2.064,5.52-3.669
c4.955-4.836,9.434-10.174,14.974-14.402c1.437-1.097,2.132-2.453,1.796-4.266c-0.841-4.53-1.682-9.042-3.661-13.284
c-0.531-1.138-1.389-1.505-2.231-1.86c-4.408-1.855-8.817-3.731-13.338-5.282c-2.02-0.693-4.18-2.305-6.491-0.179
c-3.815,3.509-7.786,6.872-6.147,12.919c1.026,3.789,0.804,7.736,1,11.553C160.021,128.708,161.654,133.445,162.015,138.672z
M61.684,202.177c1.214,3.76-1.062,6.731-2.278,10.016c-1.341,3.617-0.538,4.719,3.254,4.67c2.623-0.035,5.315-0.68,7.847-0.26
c2.919,0.479,5.665,1.938,8.542,2.78c4.067,1.188,8.052,2.82,12.504,1.805c5.834-1.326,11.351-3.628,17.162-5.209
c0.681-6.907-5.396-9.655-8.26-14.347c-3.327-5.444-8.924-6.842-13.653-10.264C80.212,198.355,71.472,200.959,61.684,202.177z
M87.039,76.998c0.975,2.872,1.195,5.598,1.094,8.376c-0.199,5.592-1.333,11.036-2.509,16.476c-0.686,3.173,0.22,5.085,3.348,5.003
c6.447-0.169,13.378,2.053,19.014-3.479c1-0.981,2.665-1.752,3.934-2.693c3.633-2.693,8.165-3.632,12.174-6.229
c-2.215-3.061-1.53-6.298-0.912-9.449c0.928-4.742-1.373-7.931-6.265-7.977C107.049,76.933,97.18,76.998,87.039,76.998z
M243.026,260.276c0.699-3.024-1.036-5.572-1.395-8.36c-0.201-1.562-1.327-2.098-2.535-2.389c-2.345-0.569-4.808-0.742-7.088-1.482
c-2.48-0.812-4.054,0.218-5.433,1.94c-1.83,2.288-3.524,4.688-5.346,6.983c-5.263,6.63-6.491,15.264-11.084,22.269
c-0.977,1.488-0.889,4.284,0.521,5.906c1.455,1.678,3.874,1.367,5.82,0.882c1.969-0.49,3.729-0.418,5.694-0.041
c2.763,0.532,5.579,1.006,8.354,1.299c3.185,0.336,5.456-2.134,7.832-4.045c1.55-1.249,2.558-2.398,3.003-4.531
c0.772-3.707-0.908-7.375,0.426-11.073C242.636,265.304,243.723,262.872,243.026,260.276z M155.055,104.139
c2.02-3.277,4.038-6.357,7.122-8.263c2.031-1.252,2.181-2.762,2.261-4.795c0.117-3.042-1.149-6.268,0.898-9.108
c1.738-2.409,0.666-3.385-1.723-4.413c-3.923-1.691-8.082-2.905-11.611-5.499c-1.462-1.073-3.339-1.872-5.169-1.232
c-2.456,0.859-5.01,0.654-7.5,1.103c-4.649,0.838-9.357,1.307-13.029,4.803c4.328,5.65-0.853,12.386,2.011,17.722
c5.606,0.651,11.006,0.655,15.619,4.216C147.219,101.208,151.375,102.031,155.055,104.139z M136.006,253.438
c1.22-0.414,1.651-1.725,2.091-2.933c1.095-3.001,2.685-5.983,3.008-9.081c0.746-7.152,6.422-12.454,6.667-19.854
c0.177-5.343-0.276-10.187-3.38-14.622c-0.639-0.912-1.54-1.444-2.498-1.248c-3.023,0.623-6.036,1.124-8.849,2.715
c-5.128,2.901-10.582,5.037-16.647,4.766c-0.837,1.957-1.718,3.768-2.38,5.655c-0.435,1.236-0.621,2.556,0.222,3.817
c2.93,4.374,6.671,8.122,10.772,11.211C131.7,238.904,134.098,245.897,136.006,253.438z M267.766,104.099
c-4.233-0.733-7.074-0.065-8.659,3.914c-0.854,2.148-2.661,3.972-4.6,5.299c-3.372,2.308-5.766,5.397-8.028,8.691
c-1.134,1.652-2.321,3.218-4.121,4.403c-5.729,3.777-10.772,8.36-15.236,13.605c-0.864,1.015-0.244,1.645-0.207,2.426
c0.042,0.958,0.726,1.386,1.689,1.38c2.288-0.014,4.67,0.408,6.85-0.084c9.822-2.213,19.661-4.326,29.55-6.218
c1.021-0.195,1.931-0.683,1.921-2.245C266.862,124.931,266.626,114.586,267.766,104.099z M57.501,204.304
c0.114-2.348-1.179-3.818-2.082-5.506c-1.698-3.173-4.517-5.188-6.927-7.671c-2.586-2.664-4.47-5.968-7.649-8.168
c-1.288-0.896-1.908-1.263-3.383-0.2c-3.327,2.4-6.546,5.001-10.303,6.789c-0.855,0.406-1.342,1.284-1.602,2.447
c-1.081,4.822-0.457,9.893-2.334,14.615c-0.42,1.057-0.811,3.253,1.484,3.351c4.496,0.19,8.855,1.391,13.399,1.389
c4.135-0.004,8.21-0.884,12.308-0.659C55.277,210.957,57.524,209.028,57.501,204.304z M138.851,157.803
c-0.145,2.951-0.575,5.732-1.309,8.492c-1.115,4.183,0.402,6.82,4.768,8.092c3.906,1.139,8.135,1.2,11.636,3.708
c0.414,0.295,1.269,0.431,2.166,0.209c3.61-0.898,7.043-2.134,10.449-3.662c2.407-1.08,2.507-2.49,1.941-4.523
c-1.801-6.473-3.458-12.979-4.808-19.563c-0.64-3.113-2.501-4.696-5.672-4.166c-4.412,0.743-8.418,3.071-11.546,5.992
C144.096,154.604,142.071,156.956,138.851,157.803z M237.773,208.215c-1.514-0.283-3.111-0.231-3.87,1.472
c-1.017,2.276-2.338,4.618-2.544,7.017c-0.62,7.193-2.939,14.023-4.063,21.104c-0.725,4.58-0.064,5.647,4.693,5.964
c3.817,0.253,7.587,0.785,11.255,2.156c2.185,0.815,4.596,0.841,6.426-1.48c0.984-1.25,2.409-2.214,3.774-3.089
c3.165-2.024,3.803-5.329,1.365-8.126c-1.957-2.249-4.02-4.406-6.003-6.63C243.992,221.207,240.557,214.982,237.773,208.215z
M93.462,157.998c1.396,1.575,2.552,2.923,4.122,3.964c4.083,2.705,9.12,3.884,12.476,7.772c0.251,0.293,1.05,0.411,1.435,0.244
c5.667-2.47,11.673-1.998,17.544-1.678c3.248,0.175,4.222-1.389,4.602-3.783c0.315-1.994,0.276-4.037,0.684-6.059
c0.434-2.154-0.949-3.337-2.874-4.038c-5.134-1.868-10.254-3.781-14.188-5.235C108.794,152.32,101.258,155.11,93.462,157.998z"/>
<path fill-rule="evenodd" clip-rule="evenodd" fill="#EFEFEF" d="M0,79.495c0.333-0.224,0.854-0.378,0.969-0.684
c3.337-8.889,11.215-13.344,18.216-18.641c1.923-1.455,3.814-2.727,6.581-2.647c2.799,0.079,4.364,1.227,5.516,3.512
c2.167,4.295,4.473,8.525,6.531,12.871c1.616,3.413,1.447,7.005-0.451,10.216c-2.455,4.151-2.956,8.772-3.505,13.325
c-0.323,2.688-1.599,3.922-3.813,4.833c-5.373,2.208-10.749,4.413-16.066,6.75c-2.119,0.932-4.174,2.082-5.795,3.818
c-1.22,1.307-1.823,0.686-2.647-0.553c-1.176-1.768-1.272-3.777-1.798-5.7c-0.91-3.33-1.846-6.661-3.737-9.615
C0,91.152,0,85.324,0,79.495z"/>
<path fill-rule="evenodd" clip-rule="evenodd" fill="#EFEFEF" d="M270.626,0.187c1.178,3.934,2.335,7.868,2.888,11.957
c0.433,3.202,1.308,6.382,1.369,9.583c0.043,2.266-1.875,4.052-4,4.51c-5.609,1.21-11.117,2.76-16.537,4.586
c-5.565,1.876-10.02-0.865-14.585-3.145c-3.086-1.541-5.333-4.191-7.84-6.494c-1.56-1.434-1.858-2.962-0.652-4.604
c1.179-1.602,1.451-3.339,1.218-5.19c-0.487-3.847,1.067-7.446,1.265-11.205C246.041,0.187,258.334,0.187,270.626,0.187z"/>
<path fill-rule="evenodd" clip-rule="evenodd" fill="#EFEFEF" d="M93.75,299.934c-2.073-3.086-5.253-5.143-7.398-8.227
c-3.793-5.459-6.031-11.203-5.127-17.949c0.164-1.224-0.091-2.502,0.055-3.731c0.173-1.466-0.907-3.416,0.547-4.314
c2.431-1.496,4.507-3.744,7.699-3.899c4.476-0.218,8.69,0.969,12.685,2.615c4.223,1.738,8.736,2.183,13.001,3.634
c2.876,0.979,4.867,3.546,7.942,4.187c0.85,0.181,0.281,1.059,0.142,1.773c-1.833,9.382-8.238,14.784-16.086,19.187
c-3.889,2.18-7.641,4.622-11.585,6.726C95,299.934,94.375,299.934,93.75,299.934z"/>
<path fill-rule="evenodd" clip-rule="evenodd" fill="#EFEFEF" d="M198.749,0.187c-0.178,9.77-3.136,18.355-10.095,25.542
c-2.159,2.232-4.431,3.915-7.178,5.205c-2.071,0.971-3.375,0.515-4.626-1.349c-2.598-3.873-6.587-5.793-10.749-7.601
c-4.744-2.06-10.09-2.407-14.519-5.372c-1.349-0.902-1.865-1.398-1.135-3.067c0.708-1.624,0.854-3.51,1.133-5.297
c0.58-3.729,3.144-5.963,5.92-8.061C171.251,0.187,185,0.187,198.749,0.187z"/>
<path fill-rule="evenodd" clip-rule="evenodd" fill="#EFEFEF" d="M0,165.671c1.53-3.266,5.002-4.819,6.882-7.789
c0.373-0.59,0.938-1.047,1.805-0.963c6.018,0.59,11.422-2.725,17.394-2.709c3.235,0.006,6.062,1.326,8.418,2.913
c1.195,0.804,0.686,3.99,1.149,6.055c0.948,4.21,0.036,8.578,1.2,12.769c0.36,1.298-0.147,2.422-1.302,3.21
c-3.405,2.329-6.517,5.48-10.274,6.795c-4.488,1.571-9.453,2.968-14.29-0.167c-3.851-2.495-6.686-5.813-9.347-9.404
c-0.406-0.548-1.084-0.897-1.636-1.339C0,171.917,0,168.794,0,165.671z"/>
<path fill-rule="evenodd" clip-rule="evenodd" fill="#EFEFEF" d="M300,133.824c-4.956-0.666-9.908-1.422-14.93-1.237
c-4.031,0.148-7.829,1.542-11.965,2.557c0.364-8.355-1.138-16.459-0.558-24.616c0.145-2.021,0.441-4.047,0.667-6.067
c0.429-3.847,4.146-4.266,6.786-5.514c3.514-1.662,7.353-2.534,11.129-3.543c2.27-0.606,3.6,0.122,4.362,1.891
c1.637,3.793,3.021,7.694,4.508,11.552C300,117.171,300,125.499,300,133.824z"/>
<path fill-rule="evenodd" clip-rule="evenodd" fill="#EFEFEF" d="M147.5,299.934c-1.359-1.151-2.828-2.177-3.603-3.896
c-2.047-4.541-6.222-6.879-10.316-8.859c-3.438-1.662-5.993-3.842-7.817-7.168c0.987-2.719,2.152-5.575,3.052-8.514
c0.944-3.082,3.173-5.329,4.843-7.928c1.334-2.076,3.362-2.437,5.721-1.444c6.679,2.819,12.353,7.911,20.018,8.591
c1.437,0.127,2.624,1.709,2.521,3.744c-0.144,2.828-0.13,5.612,1.126,8.374c1.144,2.512-1.163,7.112-3.764,8.354
c-4.143,1.979-8.114,4.121-9.907,8.745C148.75,299.934,148.125,299.934,147.5,299.934z"/>
<path fill-rule="evenodd" clip-rule="evenodd" fill="#EFEFEF" d="M88.125,0.187c1.444,1.6,2.889,3.2,4.488,4.97
c-3.068,4.629-5.974,9.498-7.952,14.715c-1.077,2.84-2.94,4.247-5.192,5.408c-2.468,1.273-5.091,0.885-7.741-0.046
c-2.467-0.867-5.065-1.416-7.752-1.334c-2.591,0.079-4.595-1.39-6.51-2.864c-1.287-0.99-2.222-2.385-3.737-3.159
c-0.577-0.295-1.228-0.799-1.226-1.664c0.017-5.417-1.618-10.642-1.877-16.026C63.126,0.187,75.625,0.187,88.125,0.187z"/>
<path fill-rule="evenodd" clip-rule="evenodd" fill="#EFEFEF" d="M300,181.908c-5.433,2.736-10.698,5.649-14.959,10.18
c-2.762,2.935-4.955,2.406-7.726-0.512c-2.068-2.178-4.951-3.38-6.77-6.097c-1.311-1.957-2.066-3.944-2.342-6.064
c-0.339-2.62-0.067-5.292-0.661-7.936c-0.75-3.34,2.303-4.975,3.783-7.245c3.629-5.567,9.453-7.459,15.647-5.366
c0.451,0.151,0.843,0.558,1.188,0.917c1.359,1.406,2.967,2.324,4.806,3.025c1.572,0.599,3.065,1.473,2.185,3.783
c-2.28,5.985,0.679,10.256,4.849,14.064C300,181.077,300,181.491,300,181.908z"/>
<path fill-rule="evenodd" clip-rule="evenodd" fill="#EFEFEF" d="M14.375,0.187c0.576,4.628,3.867,7.424,6.946,10.398
c3.694,3.568,7.062,7.442,10.245,11.47c1.292,1.635,0.697,2.806-0.564,4.461c-3.98,5.22-9.01,5.885-14.813,4.267
C10.891,29.305,5.386,29.186,0,28.289C0,18.99,0,9.691,0,0.187C4.79,0.187,9.583,0.187,14.375,0.187z"/>
<path fill-rule="evenodd" clip-rule="evenodd" fill="#EFEFEF" d="M229.374,0.187c-0.366,2.777-0.376,5.66-2.136,8.05
c-0.572,0.778-0.329,1.592-0.35,2.387c-0.231,9.15-1.601,10.493-9.486,13.088c-4.838,1.592-9.535,3.6-14.314,5.364
c-3.824,1.411-7.297,1.199-10.771,0.392C197.443,23.027,201.25,16,202.624,7.65c0.409-2.48-0.08-5.115,1.126-7.463
C212.292,0.187,220.834,0.187,229.374,0.187z"/>
<path fill-rule="evenodd" clip-rule="evenodd" fill="#EFEFEF" d="M140.625,0.187c1.623,1.514,3.168,3.124,4.891,4.514
c1.549,1.25,1.819,2.937,1.201,4.418c-0.866,2.069-1.208,4.236-1.89,6.315c-0.687,2.099-1.825,3.798-4.756,3.562
c-4.791-0.385-9.51,0.361-14.192,1.608c-2.551,0.681-5.175,0.592-7.223-1.974c-1.931-2.419-4.271-4.535-6.569-6.633
c-2.577-2.354-3.773-5.791-6.576-7.98c-1.191-0.932-0.277-2.548-0.51-3.83C116.875,0.187,128.75,0.187,140.625,0.187z"/>
<path fill-rule="evenodd" clip-rule="evenodd" fill="#EFEFEF" d="M0,32.66c6.933,0.184,13.714,1.149,20.224,3.696
c0.729,0.285,1.572,0.491,1.587,1.206c0.092,4.34,0.058,8.681,0.053,13.021c0,0.97-0.851,1.4-1.432,1.915
c-4.411,3.907-8.948,7.67-14.011,10.714C4.293,64.493,2.696,66.69,0,67.006C0,55.558,0,44.108,0,32.66z"/>
<path fill-rule="evenodd" clip-rule="evenodd" fill="#EFEFEF" d="M300,28.289c-6.502-1.479-13.026-2.827-19.985-3.323
c-0.117-8.326-2.264-16.465-3.139-24.779c7.707,0,15.416,0,23.124,0C300,9.554,300,18.921,300,28.289z"/>
<path fill-rule="evenodd" clip-rule="evenodd" fill="#EFEFEF" d="M0,186.28c1.453,0.252,1.772-1.263,3.03-1.797
c3.973,5.28,9.894,7.451,16.408,8.82c-0.085,5.753-1.916,11.252-1.345,16.923c0.141,1.396-1.439,1.721-2.219,2.159
c-3.292,1.852-5.786,4.441-8.04,7.643c-2.483-1.348-5.208-0.147-7.834-0.651C0,208.345,0,197.314,0,186.28z"/>
<path fill-rule="evenodd" clip-rule="evenodd" fill="#EFEFEF" d="M300,258.095c-3.316,0-6.637-0.079-9.949,0.035
c-1.438,0.053-2.59-0.425-3.035-1.619c-1.327-3.549-3.215-6.995-2.649-11.012c0.07-0.511,0.095-1.053-0.003-1.552
c-1.369-7.02,1.981-12.765,5.074-18.546c0.785-1.47,1.846-2.693,4.043-2.35c2.125,0.332,4.342,0.073,6.52,0.073
C300,234.783,300,246.438,300,258.095z"/>
<path fill-rule="evenodd" clip-rule="evenodd" fill="#EFEFEF" d="M234.376,299.934c0.196-2.513,1.409-4.801,1.532-7.364
c0.043-0.854,0.665-2.09,2.242-2.047c1.916,0.053,3.188-1.322,4.201-2.725c3.407-4.711,6.781-5.962,12.531-4.488
c0.584,0.148,1.172,0.34,1.768,0.375c6.981,0.426,11.285,4.451,12.105,11.338c0.2,1.689,1.396,3.132,1.244,4.911
C258.125,299.934,246.251,299.934,234.376,299.934z"/>
<path fill-rule="evenodd" clip-rule="evenodd" fill="#EFEFEF" d="M300,219.377c-2.363-0.108-4.469-1.124-6.572-2.023
c-2.396-1.023-4.61-2.425-7.115-3.273c-2.097-0.713-3.238-2.358-3.189-4.681c0.017-0.831,0.147-1.693-0.02-2.491
c-1.391-6.646,2.475-10.39,7.232-13.958c3.074-2.309,6.006-4.723,9.664-6.045C300,197.729,300,208.555,300,219.377z"/>
<path fill-rule="evenodd" clip-rule="evenodd" fill="#EFEFEF" d="M45.625,0.187c1.756,4.356,0.994,9.162,2.445,13.593
c0.375,1.144,0.105,2.228-1.618,2.723c-3.334,0.96-6.039,3.134-8.664,5.487c-3.616-3.664-6.688-7.781-9.531-12.07
c-1.637-2.469-3.516-4.715-5.613-6.801c-0.793-0.788-2.009-1.446-1.394-2.931C29.376,0.187,37.5,0.187,45.625,0.187z"/>
<path fill-rule="evenodd" clip-rule="evenodd" fill="#EFEFEF" d="M20.001,299.934c-1.557-3.507-1.923-7.28-1.804-10.992
c0.203-6.313,6.923-9.356,12.234-5.632c1.175,0.822,2.373,1.748,3.225,3.054c2.653,4.064,6.047,7.504,9.527,10.857
c0.748,0.721,1.808,1.367,1.193,2.713C36.25,299.934,28.125,299.934,20.001,299.934z"/>
<path fill-rule="evenodd" clip-rule="evenodd" fill="#EFEFEF" d="M158.751,299.934c-0.22-0.208-0.479-0.476-0.13-0.709
c5.848-3.901,10.578-9.881,18.952-8.77c4.685,0.621,9.52,0.122,14.287,0.106c2.247-0.006,4.362,0.625,6.456,1.309
c2.533,0.827,2.972,2.449,1.74,4.746c-0.559,1.039-0.878,2.21-1.308,3.317C185.417,299.934,172.084,299.934,158.751,299.934z"/>
<path fill-rule="evenodd" clip-rule="evenodd" fill="#EFEFEF" d="M276.876,299.934c-0.14-2.169-0.904-4.055-2.267-5.781
c-1.313-1.664-1.247-3.469,0.96-4.145c7.978-2.444,16.046-4.544,24.431-5.061c0,4.995,0,9.991,0,14.986
C292.292,299.934,284.583,299.934,276.876,299.934z"/>
<path fill-rule="evenodd" clip-rule="evenodd" fill="#EFEFEF" d="M51.875,299.934c-0.786-1.601,0.932-1.402,1.421-1.597
c8.944-3.526,16.136-9.127,21.146-17.404c0.371-0.613,0.842-1.165,1.563-2.151c1.378,3.167,1.388,6.013,2.639,8.557
c2.042,4.15,4.634,7.816,7.729,11.191c0.34,0.369,1.177,0.643,0.501,1.404C75.208,299.934,63.542,299.934,51.875,299.934z"/>
<path fill-rule="evenodd" clip-rule="evenodd" fill="#EFEFEF" d="M0,223.749c1.68-0.352,3.109,0.849,5.048,0.68
c-0.938,7.514,3.936,13.318,5.662,20.064c0.895,3.492,1.532,6.928,1.166,10.52c-0.207,2.021-1.347,2.897-3.344,3.113
c-2.903,0.312-5.671-0.693-8.532-0.656C0,246.229,0,234.989,0,223.749z"/>
<path fill-rule="evenodd" clip-rule="evenodd" fill="#EFEFEF" d="M300,279.95c-6.816,0.764-13.589,1.779-20.38,3.461
c-2.099-3.76,0.804-6.229,2.881-8.665c3.595-4.211,8.321-7.097,13.139-9.694c1.359-0.732,2.359-2.585,4.36-1.962
C300,268.71,300,274.332,300,279.95z"/>
<path fill-rule="evenodd" clip-rule="evenodd" fill="#EFEFEF" d="M0,262.467c1.993,0,4.002-0.153,5.972,0.058
c1.495,0.159,2.124,1.278,2.18,2.855c0.177,4.973,2.291,8.366,7.477,9.708c1.487,0.384,2.603,2.204,3.828,3.311
c-2.134,4.539-6.467,4.566-10.187,5.115c-1.606,0.237-3.589-1.404-5.251-2.435c-1.281-0.793-2.531-1.271-4.019-1.129
C0,274.122,0,268.293,0,262.467z"/>
<path fill-rule="evenodd" clip-rule="evenodd" fill="#EFEFEF" d="M300,155.055c-5.687,2.936-6.204,2.128-10.961-1.571
c-4.936-3.837-2.141-8.041-1.82-11.915c0.383-4.606,3.854-5.905,9.028-4.334c1.234,0.375,2.379,1.125,3.753,0.961
C300,143.816,300,149.437,300,155.055z"/>
<path fill-rule="evenodd" clip-rule="evenodd" fill="#EFEFEF" d="M300,67.63c-0.714,0.34-1.43,0.68-2.351,1.119
c-2.68-13.514-1.644-28.167-13.315-39.118c5.808,0.892,10.737,1.648,15.666,2.405C300,43.9,300,55.765,300,67.63z"/>
<path fill-rule="evenodd" clip-rule="evenodd" fill="#EFEFEF" d="M106.25,299.934c0.201-2.025,2.219-2.068,3.383-3.012
c5.062-4.104,10.896-6.172,17.427-6.38c2.23-0.07,4.175,0.261,5.9,1.849c1.859,1.713,3.938,3.186,5.851,4.844
c0.772,0.67,1.813,1.357,1.189,2.699C128.75,299.934,117.5,299.934,106.25,299.934z"/>
<path fill-rule="evenodd" clip-rule="evenodd" fill="#EFEFEF" d="M203.75,299.934c1.493-6.003,6.559-7.632,11.522-9.362
c4.479-1.562,8.829,0.383,13.194,0.792c2.602,0.245,1.824,3.4,1.824,5.267c-0.001,1.018-0.147,2.202-0.291,3.304
C221.251,299.934,212.501,299.934,203.75,299.934z"/>
<path fill-rule="evenodd" clip-rule="evenodd" fill="#EFEFEF" d="M0,138.196c6.388,0.944,11.837,3.459,15.207,9.294
c1.361,2.357-0.207,4.98-2.906,5.071c-4.173,0.141-8.218,1.137-12.301,1.87C0,149.019,0,143.608,0,138.196z"/>
<path fill-rule="evenodd" clip-rule="evenodd" fill="#EFEFEF" d="M0,285.572c4.047,1.931,6.673,5.547,9.939,8.401
c1.827,1.597,3.283,3.503,3.811,5.96c-4.583,0-9.167,0-13.75,0C0,295.146,0,290.359,0,285.572z"/>
<path fill-rule="evenodd" clip-rule="evenodd" fill="#EFEFEF" d="M0,111.344c3.534,4.583,3.562,9.973,2.869,15.226
c-0.336,2.55,0.09,5.102-0.591,7.879c-0.714,0-1.497,0-2.278,0C0,126.747,0,119.045,0,111.344z"/>
<path fill-rule="evenodd" clip-rule="evenodd" fill="#EFEFEF" d="M300,95.107c-1.706,0.68-1.588-1.219-1.672-1.641
c-0.651-3.219,0.172-6.392,0.765-9.552c0.081-0.436,0.576-0.475,0.907-0.048C300,87.614,300,91.36,300,95.107z"/>
<path fill-rule="evenodd" clip-rule="evenodd" fill="#EFEFEF" d="M300,172.542c-1.275-0.604-1.275-0.604-1.248-2.338
c0.02-1.453,0.02-1.453,1.248-2.035C300,169.627,300,171.086,300,172.542z"/>
<path fill-rule="evenodd" clip-rule="evenodd" fill="#EFEFEF" d="M138.096,153.792c-6.219-5.578-14.529-5.725-21.683-9.478
c-3.483-7.402-5.065-16.297-11.135-23.162c-1.391-1.573-2.143-3.893-2.664-5.999c-0.547-2.221-0.232-3.936,2.631-5.23
c4.062-1.836,7.462-5.071,11.382-7.294c7.915-4.488,16.007-5.75,24.362-0.768c3.601,2.147,7.479,3.84,11.283,5.63
c0.964,0.454,1.295,0.977,1.52,2.003c1.43,6.594,1.254,13.269,1.208,19.942c-0.008,1.143-0.172,2.317,0.027,3.423
c0.984,5.474-2.146,8.753-6.11,11.544c-2.494,1.756-4.864,3.711-6.515,6.21C141.232,152.386,139.869,153.334,138.096,153.792z"/>
<path fill-rule="evenodd" clip-rule="evenodd" fill="#EFEFEF" d="M39.212,157.169c7.779-1.043,14.551-3.913,21.476-6.246
c1.991-0.669,4.104-0.889,5.999-1.98c1.069-0.616,2.364-0.009,3.502,0.523c3.663,1.714,7.037,3.914,10.333,6.225
c3.941,2.762,8.64,4.19,12.173,7.793c3.303,3.369,8.296,4.43,12.214,7.331c-1.292,2.935-3.79,4.828-6.027,6.803
c-5.163,4.553-11.117,8.13-16.459,12.406c-5.45,4.365-11.599,6.188-18.029,7.758c-2.638,0.645-5.178-0.487-6.229-2.599
c-1.952-3.917-6.102-5.608-8.27-9.232c-1.673-2.8-4.14-4.874-6.963-6.689c-2.146-1.379-2.061-4.465-2.138-6.679
C40.616,167.458,40.084,162.392,39.212,157.169z"/>
<path fill-rule="evenodd" clip-rule="evenodd" fill="#EFEFEF" d="M6.861,130.943c0.88-3.011,0.424-6.954,0.715-10.846
c0.18-2.425,2.524-3.606,4.242-4.974c4.717-3.757,10.5-5.333,15.976-7.53c1.483-0.595,3.144-0.969,4.388-1.895
c3.212-2.39,5.755-0.922,8.033,1.245c4.008,3.814,8.805,7.102,13.546,9.032c8.249,3.358,7.083,10.942,9.906,16.709
c0.305,0.624-0.192,1.807-0.602,2.581c-1.491,2.826-1.989,5.95-2.317,8.999c-0.212,1.949-1.012,2.886-2.569,3.243
c-3.633,0.832-6.91,2.66-10.567,3.462c-4.864,1.069-9.541,0.726-14.204-0.86c-4.532-1.541-9.243-2.387-13.22-5.555
c-3.843-3.061-7.63-6.291-12.054-8.589C6.388,135.058,6.924,133.304,6.861,130.943z"/>
<path fill-rule="evenodd" clip-rule="evenodd" fill="#EFEFEF" d="M183.929,228.104c-5.124,0.136-9.967-1.788-15.046-2.116
c-3.938-0.253-7.706-1.55-11.575-2.148c-2.362-0.369-3.135-1.757-3.513-3.573c-0.574-2.766-0.561-5.688-1.396-8.354
c-0.672-2.142-2.386-3.868-3.301-6.051c-1.169-2.789-1.64-7.069,0.592-8.757c2.705-2.043,3.075-4.61,3.699-7.51
c1.202-5.587,4.235-8.062,9.999-8.236c2.839-0.089,5.397-0.856,7.85-2c1.928-0.894,3.501-0.605,5.117,0.478
c7.671,5.152,14.095,11.631,19.957,18.71c1.818,2.196,0.653,4.567,0.382,6.858c-0.86,7.205-4.904,13.276-7.173,19.974
C188.414,228.65,186.238,228.124,183.929,228.104z"/>
<path fill-rule="evenodd" clip-rule="evenodd" fill="#EFEFEF" d="M280.626,145.229c0.567,2.433-0.816,4.153-3.127,5.856
c-7.696,5.68-13.489,12.742-15.688,22.395c-0.837,3.68-3.142,6.715-6.179,9.038c-4.414,3.381-9.477,5.854-13.447,9.889
c-1.368,1.392-3.368,2.163-5.104,3.177c-0.235,0.138-0.782,0.169-0.893,0.025c-1.588-2.07-4.269-2.117-6.271-3.43
c-2.392-1.565-2.295-4.271-2.136-6.28c0.237-2.976,0.379-5.803-0.223-8.751c-0.607-2.965,0.362-5.876,1.325-8.646
c1.884-5.416,2.699-10.714,0.08-16.179c-1.076-2.247,0.003-4.09,2.247-4.093c5.539-0.006,10.829-1.394,16.167-2.553
c8.646-1.875,17.292-3.741,25.941-5.607c0.199-0.043,0.42-0.006,0.611-0.066C279.512,138.291,280.626,139.078,280.626,145.229z"/>
<path fill-rule="evenodd" clip-rule="evenodd" fill="#EFEFEF" d="M48.498,295.962c-5.521-4.185-9.19-10.03-13.931-14.889
c-2.35-2.404-5.312-3.679-8.52-4.174c-1.896-0.293-3.459-1.233-4.288-2.54c-1.319-2.084-3.219-3.143-5.277-3.646
c-2.884-0.708-3.496-2.786-3.962-5.09c-0.505-2.497,1.112-3.727,3.064-4.688c2.593-1.282,5.009-2.899,7.55-4.271
c4.35-2.35,8.773-2.359,13.37-2.327c5.72,0.039,11.461,0.298,17.158-0.067c6.452-0.416,11.027,3.309,15.993,6.308
c2.085,1.258,3.547,3.406,5.852,4.324c1.239,0.49,1.408,1.296,1.377,2.4c-0.04,1.453-0.061,2.913,0.005,4.362
c0.063,1.346-0.369,2.057-1.611,2.903c-2.639,1.798-5.034,3.652-6.749,6.844c-3.246,6.039-9.281,9.424-15.423,12.195
C51.48,294.341,49.863,295.022,48.498,295.962z"/>
<path fill-rule="evenodd" clip-rule="evenodd" fill="#EFEFEF" d="M59.663,65.804c6.738-0.64,11.172,3.38,16.267,5.988
c7.833,4.008,8.53,10.335,7.271,17.904c-0.811,4.872-1.405,9.731-3.044,14.454c-1.247,3.593-3.489,5.19-7.082,6.067
c-2.751,0.671-5.277,2.364-7.818,3.756c-1.896,1.039-3.297,1.121-5.568,0.167c-7.638-3.207-13.769-8.661-20.707-12.878
c-1.076-0.655-1.005-1.795-0.832-2.791c0.622-3.575,0.947-7.274,2.148-10.655c1.106-3.11,1.691-6.803,3.264-9.203
c2.587-3.946,4.237-8.967,9.317-11.262C55.325,66.248,57.527,65.506,59.663,65.804z"/>
<path fill-rule="evenodd" clip-rule="evenodd" fill="#EFEFEF" d="M123.99,28.211c0.576-3.354,2.851-3.587,5.645-3.75
c6.31-0.368,12.599-1.713,18.887-1.661c8.616,0.073,16.406,2.945,22.613,9.356c1.369,1.414,1.584,2.535,0.775,4.306
c-2.435,5.323-4.061,10.894-4.393,16.777c-0.043,0.774,0.173,1.563,0.337,2.918c-5.076,0.64-8.756,4.488-13.412,6.495
c-0.823,0.355-1.772,0.641-2.383,1.242c-5.213,5.134-12.24,3.075-18.351,4.605c-1.105,0.277-2.492-0.924-2.776-2.181
c-0.445-1.971-1.085-3.848-1.053-6.025c0.085-5.878-1.587-11.586-2.54-17.364c-0.672-4.068-1.604-8.093-2.305-12.156
C124.854,29.713,124.327,28.904,123.99,28.211z"/>
<path fill-rule="evenodd" clip-rule="evenodd" fill="#EFEFEF" d="M42.141,72.724c-2.404-3.528-3.711-7.246-5.211-10.832
c-1.688-4.035-5.218-6.654-7.263-10.413c-2.678-4.918-2.137-9.9-1.31-15.056c0.409-2.546,2.541-3.324,4.111-4.583
c4.894-3.926,9.365-8.424,15.018-11.361c1.034-0.538,1.707-0.669,2.828,0.095c0.937,0.64,1.886,1.323,2.582,2.114
c4.113,4.681,10.188,5.495,15.452,7.797c3.732,1.634,4.981,4.372,5.348,7.837c0.255,2.421,0.599,4.787,1.216,7.144
c0.371,1.416-0.569,2.526-1.52,3.476c-3.038,3.033-6.608,5.329-10.308,7.466c-5.844,3.376-11.757,6.654-16.956,11.027
C44.458,68.837,43.663,70.895,42.141,72.724z"/>
<path fill-rule="evenodd" clip-rule="evenodd" fill="#EFEFEF" d="M261.275,187.546c1.775-0.389,3.188,0.379,4.691,1.781
c2.432,2.268,5.574,3.682,7.923,6.115c2.013,2.086,4.068,4.113,3.618,7.408c-0.513,3.726,0.468,7.394,1.465,10.815
c0.651,2.233,3.184,4.029,5.111,5.754c2.725,2.436,2.841,2.61,0.305,5.255c-2.018,2.102-2.976,4.773-3.721,7.464
c-1.175,4.249-2.551,5.08-6.912,4.175c-1.577-0.328-3.133-0.688-4.97-0.192c-3.869,1.049-6.939-0.619-9.376-3.835
c-3.681-4.863-8.265-9.001-11.606-14.155c-2.903-4.484-5.101-9.349-7.208-14.214c-0.691-1.589-0.465-3.752,1.188-5.406
c3.332-3.333,6.951-6.312,10.883-8.859C255.143,188.045,258.025,187.332,261.275,187.546z"/>
<path fill-rule="evenodd" clip-rule="evenodd" fill="#EFEFEF" d="M82.366,112.631c4.212-0.083,8.153-0.537,12.083-1.235
c2.076-0.369,3.957-0.291,3.724,2.848c-0.277,3.727,1.77,7.005,3.856,9.561c3.894,4.767,5.501,10.415,7.793,15.832
c0.039,0.094,0.134,0.171,0.152,0.265c0.411,2.262,2.462,4.438,1.697,6.554c-0.812,2.245-3.883,1.571-5.869,2.454
c-4.011,1.779-8.209,3.133-12.291,4.759c-3.499,1.393-6.671,0.776-9.806-1.098c-4.526-2.704-8.658-6.044-13.866-7.653
c-2.214-0.684-0.865-3.29-1.01-5.023c-0.472-5.653,1.264-11.534-1.492-16.917c-0.667-1.304-0.057-2.078,0.401-2.7
C71.4,115.3,75.937,111.865,82.366,112.631z"/>
<path fill-rule="evenodd" clip-rule="evenodd" fill="#EFEFEF" d="M224.143,195.65c5.438,0.018,9.487,5.485,6.862,10.195
c-2.838,5.096-3.705,10.498-4.814,15.994c-1.007,4.978-2.291,9.934-3.905,14.744c-1.249,3.719-4.146,6.274-8.044,7.098
c-5.142,1.086-9.924,3.088-14.764,5.005c-1.938,0.771-3.971,1.403-6.02,1.757c-1.21,0.21-2.248-0.381-2.241-2.064
c0.014-2.886,1.291-5.499,1.569-8.313c0.03-0.291,0.349-0.59,0.307-0.851c-1.43-9.59,4.194-17.177,7.302-25.458
c0.719-1.922,1.549-3.971,1.34-5.805c-0.344-3.023,1.507-4.452,3.454-5.119c4.228-1.452,7.656-4.393,11.875-5.795
C219.385,196.27,221.654,195.476,224.143,195.65z"/>
<path fill-rule="evenodd" clip-rule="evenodd" fill="#EFEFEF" d="M183.228,177.59c-3.803,0.739-5.85-2.669-7.929-5.244
c-3.267-4.047-4.661-9.086-5.23-14.211c-0.318-2.869-1.589-5.372-2.272-8.083c-0.439-1.745-0.904-3.199,1.779-3.928
c2.483-0.675,4.482-2.562,6.569-4.232c5.614-4.492,9.485-10.794,15.673-14.671c1.521-0.955,2.144-0.972,3.722,0.208
c4.029,3.016,7.736,6.453,12.165,8.994c4.283,2.456,4.351,7.088,1.598,12.299c-2.422,4.583-6.722,7.563-9.186,12.067
c-2.263,4.133-5.114,7.939-7.466,12.025C190.621,176.339,187.571,177.535,183.228,177.59z"/>
<path fill-rule="evenodd" clip-rule="evenodd" fill="#EFEFEF" d="M148.75,186.153c-0.545,4.009-2.667,8.47-7.114,11.93
c-6.736,5.242-14.736,6.838-22.687,8.949c-3.988,1.059-5.96-1.102-8.893-2.647c-5.633-2.969-7.605-9.559-13.262-12.268
c-1.35-0.646-2.665-1.365-4.015-2.01c-1.344-0.645-1.237-1.192-0.089-2.027c4.667-3.393,8.779-7.407,12.948-11.388
c3.273-3.121,8.024-2.844,12.094-4.145c4.675-1.495,9.356,0.336,14.051,0.059c1.91-0.111,3.296,1.452,4.5,2.812
c1.856,2.096,4.119,3.084,6.89,3.412C147.623,179.353,148.751,180.681,148.75,186.153z"/>
<path fill-rule="evenodd" clip-rule="evenodd" fill="#EFEFEF" d="M255.252,58.492c11.075,9.29,25.478,10.494,38.498,15.684
c0,4.918-0.014,9.9,0.011,14.881c0.006,1.284-0.214,2.188-1.791,2.322c-5.994,0.511-11.338,3.122-16.904,5.114
c-4.952,1.771-10.255,2.481-15.552,2.293c-2.435-0.086-3.417-2.427-4.458-4.212c-1.868-3.199-3.454-6.561-5.192-9.838
c-0.804-1.52-1.666-2.964-2.87-4.27c-2.864-3.106-3.093-4.512-0.439-7.623c1.485-1.742,2.293-3.638,2.717-5.625
C250.047,63.586,252.233,61.118,255.252,58.492z"/>
<path fill-rule="evenodd" clip-rule="evenodd" fill="#EFEFEF" d="M84.512,227.532c3.458-2.043,7.126-1.229,10.641-1.233
c3.527-0.002,6.807-0.544,9.94-2.241c1.108-0.602,1.863-1.558,3.111-2.322c1.675,2.856,4.338,4.919,5.723,8.003
c0.737,1.641,2.629,2.216,3.924,3.369c2.823,2.521,4.526,6.017,7.912,8.131c2.375,1.484,2.736,4.64,2.927,7.335
c0.208,2.95,0.766,5.807,1.484,8.647c0.115,0.453,0.706,0.944,0.242,1.341c-2.375,2.025-3.057,5.261-5.368,7.345
c-1.249,1.126-2.608,1.419-3.868,0.479c-3.401-2.534-7.275-3.636-11.36-4.382c-5.021-0.918-9.621-3.328-14.682-4.239
c-1.648-0.297-3.282,0.049-5.118-0.493c4.407-6.2,2.074-11.366-2.04-16.717c-1.918-2.493-4.221-5.544-2.468-9.457
C85.877,230.283,84.923,228.876,84.512,227.532z"/>
<path fill-rule="evenodd" clip-rule="evenodd" fill="#EFEFEF" d="M187.342,233.907c0.406,12.526-3.591,21.032-15.224,27.071
c-11.799,6.129-20.879,3.084-30.643-3.165c1.088-8.62,5.108-16.54,7.987-24.804c1.48-4.247,4.265-5.226,8.946-4.293
c6.856,1.359,13.788,2.271,20.713,3.204C182.063,232.315,184.926,233.306,187.342,233.907z"/>
<path fill-rule="evenodd" clip-rule="evenodd" fill="#EFEFEF" d="M196.058,100.914c0.824-2.863,2.458-4.203,3.999-5.499
c6.618-5.568,6.452-12.654,4.721-20.135c-0.068-0.288-0.237-0.551-0.335-0.834c-0.03-0.088,0.022-0.204,0.055-0.428
c2.835-0.309,5.565-0.294,8.278,1.093c3.354,1.717,7.004,2.513,10.806,2.529c0.902,0.003,1.83-0.242,2.716,0.314
c3.445,2.158,7.297,2.41,11.195,2.131c1.609-0.115,2.628,0.545,3.784,1.539c4.217,3.621,5.796,8.909,8.706,13.346
c0.548,0.836,0.993,1.738,1.546,2.57c2.425,3.645,2.124,3.752-1.943,5.132c-9.911,3.365-20.098,2.249-30.214,2.421
c-6.475,0.111-12.925,0.076-19.343-1.167C197.794,103.493,198.704,100.342,196.058,100.914z"/>
<path fill-rule="evenodd" clip-rule="evenodd" fill="#EFEFEF" d="M210.361,33.219c5.325-2.726,10.279-5.936,15.703-7.735
c2.485-0.826,5.567,1.815,7.786,3.887c2.254,2.103,4.641,3.84,7.68,4.632c2.659,0.693,2.68,3.18,2.764,5.128
c0.176,4.099,1.425,7.605,3.86,10.918c0.954,1.296,1.699,3.391,0.865,5.072c-2.667,5.38-4.831,10.967-7.22,16.462
c-1.507,3.471-3.14,3.803-7.141,3.027c-6.169-1.195-9.47-5.149-11.591-10.687c-1.215-3.167-2.829-6.17-4.072-9.353
c-1.166-2.994-2.393-5.868-2.947-9.097C215.311,41.208,213.314,37.345,210.361,33.219z"/>
<path fill-rule="evenodd" clip-rule="evenodd" fill="#EFEFEF" d="M169.443,286.689c-2.032-3.028-0.854-6.523-1.935-9.564
c-2.176-6.141,0.84-8.861,6.147-11.771c6.882-3.768,13.794-7.374,21.064-10.23c6.514-2.558,13.229-4.608,19.878-6.818
c0.737-0.245,1.713-0.799,2.324,0.526c0.46,0.992,1.032,1.849-0.077,2.711c-1.506,1.165-1.777,2.88-2.082,4.575
c-1.329,7.382-4.875,13.891-8.07,20.54c-0.783,1.628-1.715,3.219-2.225,4.932c-0.583,1.939-1.67,3.006-3.424,4.078
c-2.002,1.225-3.455,0.188-5.225,0.104c-6.016-0.293-12.052-0.041-18.082-0.072C174.934,285.684,172.134,285.495,169.443,286.689z"
/>
<path fill-rule="evenodd" clip-rule="evenodd" fill="#EFEFEF" d="M219.199,71.273c-3.399,0.664-6.347-1.249-9.366-2.011
c-7.46-1.881-15.012-3.504-22.205-6.491c-4.583-1.902-8.642-4.691-13.152-6.653c-1.593-0.691-1.165-2.04-0.737-3.33
c1.325-3.989,0.09-8.26,1.592-12.358c0.72-1.962,1.837-2.973,3.277-3.262c2.376-0.477,4.258-1.695,6.3-2.772
c1.326-0.7,2.635-1.287,4.5-0.609c3.722,1.352,7.745,0.709,11.647,0.736c5.673,0.04,7.055,0.916,8.912,6.191
c1.062,3.019,2.04,6.067,2.565,9.252c0.542,3.289,2.641,6.004,3.604,9.148c0.614,2.005,0.491,4.121,1.241,6.174
C218.064,67.178,219.979,68.796,219.199,71.273z"/>
<path fill-rule="evenodd" clip-rule="evenodd" fill="#EFEFEF" d="M23.8,214.925c9.377,1.314,18.816,0.513,28.233,0.674
c2.467,0.044,3.037,1.678,2.903,3.424c-0.36,4.684-2.047,8.882-4.999,12.638c-6.085,7.737-14.391,12.748-22.309,18.191
c-2.322,1.596-5.303,2.33-8.076,3.136c-1.205,0.348-2.362-0.069-2.743-1.941c-1.742-8.555-2.836-17.263-5.583-25.596
c-0.795-2.404,0.682-3.675,2.236-4.685c2.371-1.536,4.621-3.165,6.569-5.208C21.135,214.404,22.557,215.346,23.8,214.925z"/>
<path fill-rule="evenodd" clip-rule="evenodd" fill="#EFEFEF" d="M94.083,44.524c-4.403,0-7.529,0.061-10.651-0.021
c-2.219-0.058-3.757-0.916-3.44-3.553c0.506-4.211,1.095-8.217,4.181-11.682c3.565-4.004,5.071-9.336,7.682-13.978
c1.131-2.009,2.094-4.116,3.288-6.084c0.804-1.327,1.993-2.127,3.646-1.191c10.183,5.767,18.973,12.844,22.183,24.768
c0.966,3.59,1.427,7.356,1.711,11.073c0.143,1.871-1.519,3.101-3.159,3.945c-1.448,0.745-3.091,0.583-4.204-0.309
c-2.496-2-5.293-2.185-8.292-2.414C102.287,44.716,97.561,44.355,94.083,44.524z"/>
<path fill-rule="evenodd" clip-rule="evenodd" fill="#EFEFEF" d="M293.328,69.824c-7.036-3.016-13.923-4.396-20.577-6.533
c-5.976-1.917-11.083-5.613-16.628-8.39c-1.726-0.864-2.469-4.185-3.134-6.529c-0.804-2.835-2.332-5.278-3.531-7.891
c-0.67-1.46-0.873-2.88-0.544-4.583c8.394-0.509,16.186-3.631,24.22-5.769c0.668-0.177,1.437-0.462,1.863-0.955
c1.521-1.759,2.965-0.693,3.935,0.327c7.561,7.945,12.25,17.113,12.415,28.394C291.4,61.664,292.56,65.417,293.328,69.824z"/>
<path fill-rule="evenodd" clip-rule="evenodd" fill="#EFEFEF" d="M281.021,254.871c-0.036,1.292,0.63,2.379,1.313,3.389
c2.343,3.457,1.809,6.333-0.943,9.495c-3.843,4.422-7.218,9.251-10.743,13.941c-1.882,2.507-4.035,0.892-5.375-0.128
c-4.949-3.775-10.282-5.445-16.469-4.527c-1.603,0.237-2.466-0.598-2.605-2.442c-0.275-3.638,0.366-7.132,1.447-10.519
c1.306-4.092,2.877-8.105,4.464-12.101c1.121-2.825,3.078-5.014,5.851-6.349c3.43-1.654,6.879-3.275,10.356-4.823
c1.581-0.703,3.271-0.526,4.809,0.157c1.232,0.552,2.409,1.074,3.793,0.897c0.824-0.104,1.651,0.266,1.706,1.016
C278.925,246.979,281.105,250.685,281.021,254.871z"/>
<path fill-rule="evenodd" clip-rule="evenodd" fill="#EFEFEF" d="M152.871,68.185c6.404-3.209,11.601-6.83,17.621-8.896
c0.921-0.315,1.398,0.342,2.065,0.591c4.817,1.791,8.457,5.762,13.523,7.152c2.961,0.812,5.778,2.134,8.707,3.078
c3.027,0.975,5.135,2.916,5.786,5.943c1.268,5.921,1.951,11.773-3.661,16.29c-1.73,1.392-3.055,3.305-4.476,5.052
c-2.343,2.879-6.508,3.887-9.758,2.078c-4.329-2.411-9.086-3.622-13.965-5.293c0.485-4.281-0.854-8.736,1.612-13.102
c1.233-2.185,0.258-4.78-2.531-6.034C163.075,72.921,158.389,70.726,152.871,68.185z"/>
<path fill-rule="evenodd" clip-rule="evenodd" fill="#EFEFEF" d="M195.151,121.826c-0.361-4.553-1.127-8.911-2.6-13.206
c4.372-2.126,8.618,0.046,12.918,0.437c5.681,0.516,11.321,1.927,17.084,0.481c1.372-0.344,2.9-0.071,4.357-0.067
c7.871,0.021,15.692-0.408,23.343-2.477c0.265-0.072,0.596,0.1,1.021,0.184c-0.529,2.341-1.976,4.469-3.309,5.94
c-3.401,3.749-5.625,8.654-10.159,11.286c-5.784,3.359-9.844,8.532-14.336,13.229c-1.872,1.958-3.297,2.055-5.558,0.796
c-2.817-1.571-5.132-3.833-7.707-5.491c-3.938-2.54-7.449-5.501-11.09-8.357C197.829,123.571,196.874,122.11,195.151,121.826z"/>
<path fill-rule="evenodd" clip-rule="evenodd" fill="#EFEFEF" d="M123.887,60.846c-1.753,4.158-2.25,8.466-1.991,12.911
c-1.214-0.195-2.175-0.463-3.142-0.489c-9.007-0.238-18.013-0.512-27.022-0.602c-3.339-0.032-6.213-0.807-9.246-2.381
c-3.52-1.826-6.682-3.841-9.384-6.717c-2.719-2.892-2.49-7.207,0.836-9.428c0.953-0.636,1.973-1.224,2.572-2.12
c1.87-2.799,4.69-3.093,7.611-3.11c7.184-0.041,14.367-0.006,21.551-0.017c4.138-0.005,7.425,1.931,10.789,4.129
C119.534,55.029,120.81,58.525,123.887,60.846z"/>
<path fill-rule="evenodd" clip-rule="evenodd" fill="#EFEFEF" d="M222.913,190.372c-6.546,2.169-13.164,4.359-19.844,6.573
c-2.415-3.834-6.477-5.933-9.517-9.137c-2.28-2.406-3.454-6.653-0.938-8.646c3.47-2.752,5.224-6.593,7.341-10.139
c4.461-7.475,10.765-13.6,15.016-21.203c0.916-1.635,3.025-1.054,4.567-1.433c1.537-0.379,1.444,1.223,1.918,2.199
c1.951,4.024,2.803,7.936,2.574,12.68c-0.342,7.176-1.304,14.299-1.549,21.469C222.394,185.299,223.8,187.742,222.913,190.372z"/>
<path fill-rule="evenodd" clip-rule="evenodd" fill="#EFEFEF" d="M38.858,247.465c4.322-3.146,7.929-6.451,11.44-9.885
c4.237-4.145,7.087-9.06,9.016-14.56c0.347-0.986,0.561-1.75,1.697-1.758c3.465-0.022,6.954-0.364,10.187,1.461
c1.739,0.982,3.504,1.915,5.475,2.485c3.559,1.033,4.462,4.716,4.338,7.215c-0.279,5.694,2.644,9.6,5.521,13.769
c2.781,4.022,2.231,6.785-1.773,9.429c-6.08,4.012-10.323,3.713-15.311-1.614c-2.866-3.061-6.693-3.012-10.199-3.992
c-6.107-1.707-12.423-1.084-18.659-1.352C40.171,248.644,39.775,248.117,38.858,247.465z"/>
<path fill-rule="evenodd" clip-rule="evenodd" fill="#EFEFEF" d="M162.015,138.672c-0.36-5.228-1.994-9.964-2.259-15.004
c-0.196-3.817,0.026-7.765-1-11.553c-1.639-6.047,2.332-9.41,6.147-12.919c2.312-2.125,4.472-0.514,6.491,0.179
c4.521,1.55,8.93,3.426,13.338,5.282c0.843,0.355,1.7,0.722,2.231,1.86c1.979,4.242,2.82,8.753,3.661,13.284
c0.336,1.813-0.359,3.169-1.796,4.266c-5.54,4.229-10.019,9.566-14.974,14.402c-1.644,1.604-3.501,2.684-5.52,3.669
c-1.157,0.564-1.634,0.625-2.351-0.654C165.189,140.064,163.727,139.146,162.015,138.672z"/>
<path fill-rule="evenodd" clip-rule="evenodd" fill="#EFEFEF" d="M61.684,202.177c9.788-1.218,18.528-3.821,25.118-10.809
c4.729,3.422,10.326,4.819,13.653,10.264c2.864,4.691,8.941,7.439,8.26,14.347c-5.811,1.581-11.328,3.883-17.162,5.209
c-4.453,1.016-8.437-0.616-12.504-1.805c-2.877-0.843-5.623-2.301-8.542-2.78c-2.531-0.42-5.224,0.225-7.847,0.26
c-3.792,0.049-4.595-1.053-3.254-4.67C60.622,208.908,62.898,205.937,61.684,202.177z"/>
<path fill-rule="evenodd" clip-rule="evenodd" fill="#EFEFEF" d="M87.039,76.998c10.141,0,20.01-0.065,29.878,0.027
c4.892,0.046,7.193,3.235,6.265,7.977c-0.618,3.151-1.304,6.388,0.912,9.449c-4.01,2.597-8.542,3.536-12.174,6.229
c-1.27,0.941-2.934,1.712-3.934,2.693c-5.636,5.533-12.567,3.31-19.014,3.479c-3.127,0.082-4.034-1.831-3.348-5.003
c1.177-5.439,2.31-10.884,2.509-16.476C88.234,82.596,88.014,79.87,87.039,76.998z"/>
<path fill-rule="evenodd" clip-rule="evenodd" fill="#EFEFEF" d="M243.026,260.276c0.696,2.596-0.391,5.027-1.229,7.357
c-1.334,3.698,0.347,7.366-0.426,11.073c-0.445,2.133-1.453,3.282-3.003,4.531c-2.376,1.911-4.647,4.381-7.832,4.045
c-2.775-0.293-5.592-0.767-8.354-1.299c-1.965-0.377-3.726-0.449-5.694,0.041c-1.946,0.485-4.365,0.796-5.82-0.882
c-1.409-1.622-1.497-4.418-0.521-5.906c4.593-7.005,5.821-15.639,11.084-22.269c1.821-2.296,3.516-4.695,5.346-6.983
c1.379-1.723,2.952-2.752,5.433-1.94c2.28,0.74,4.743,0.913,7.088,1.482c1.208,0.291,2.334,0.827,2.535,2.389
C241.99,254.704,243.726,257.252,243.026,260.276z"/>
<path fill-rule="evenodd" clip-rule="evenodd" fill="#EFEFEF" d="M155.055,104.139c-3.68-2.108-7.836-2.931-11.122-5.467
c-4.613-3.561-10.013-3.565-15.619-4.216c-2.864-5.335,2.317-12.071-2.011-17.722c3.672-3.496,8.38-3.964,13.029-4.803
c2.49-0.449,5.044-0.243,7.5-1.103c1.83-0.64,3.707,0.159,5.169,1.232c3.529,2.594,7.688,3.808,11.611,5.499
c2.389,1.028,3.461,2.004,1.723,4.413c-2.048,2.84-0.781,6.066-0.898,9.108c-0.08,2.033-0.229,3.542-2.261,4.795
C159.093,97.782,157.074,100.862,155.055,104.139z"/>
<path fill-rule="evenodd" clip-rule="evenodd" fill="#EFEFEF" d="M136.006,253.438c-1.908-7.541-4.306-14.534-10.993-19.574
c-4.101-3.089-7.842-6.837-10.772-11.211c-0.843-1.262-0.657-2.581-0.222-3.817c0.663-1.888,1.543-3.698,2.38-5.655
c6.065,0.271,11.519-1.864,16.647-4.766c2.813-1.591,5.826-2.092,8.849-2.715c0.958-0.196,1.859,0.336,2.498,1.248
c3.104,4.436,3.557,9.279,3.38,14.622c-0.245,7.4-5.922,12.702-6.667,19.854c-0.323,3.098-1.914,6.08-3.008,9.081
C137.657,251.714,137.226,253.024,136.006,253.438z"/>
<path fill-rule="evenodd" clip-rule="evenodd" fill="#EFEFEF" d="M267.766,104.099c-1.14,10.487-0.903,20.832-0.842,31.17
c0.01,1.562-0.9,2.05-1.921,2.245c-9.889,1.893-19.728,4.005-29.55,6.218c-2.18,0.492-4.562,0.07-6.85,0.084
c-0.964,0.006-1.647-0.422-1.689-1.38c-0.037-0.781-0.657-1.411,0.207-2.426c4.464-5.246,9.507-9.829,15.236-13.605
c1.8-1.185,2.987-2.75,4.121-4.403c2.263-3.293,4.656-6.383,8.028-8.691c1.938-1.327,3.745-3.151,4.6-5.299
C260.691,104.034,263.532,103.366,267.766,104.099z"/>
<path fill-rule="evenodd" clip-rule="evenodd" fill="#EFEFEF" d="M57.501,204.304c0.023,4.725-2.224,6.653-7.089,6.387
c-4.098-0.225-8.172,0.655-12.308,0.659c-4.544,0.002-8.904-1.198-13.399-1.389c-2.294-0.098-1.904-2.294-1.484-3.351
c1.877-4.723,1.254-9.793,2.334-14.615c0.26-1.163,0.746-2.041,1.602-2.447c3.757-1.788,6.976-4.389,10.303-6.789
c1.475-1.062,2.096-0.695,3.383,0.2c3.179,2.2,5.063,5.504,7.649,8.168c2.41,2.482,5.229,4.498,6.927,7.671
C56.322,200.485,57.615,201.956,57.501,204.304z"/>
<path fill-rule="evenodd" clip-rule="evenodd" fill="#EFEFEF" d="M138.851,157.803c3.22-0.847,5.245-3.199,7.625-5.421
c3.128-2.921,7.134-5.25,11.546-5.992c3.171-0.53,5.032,1.053,5.672,4.166c1.35,6.584,3.007,13.09,4.808,19.563
c0.565,2.033,0.466,3.443-1.941,4.523c-3.406,1.528-6.839,2.764-10.449,3.662c-0.897,0.222-1.752,0.086-2.166-0.209
c-3.501-2.508-7.729-2.569-11.636-3.708c-4.365-1.271-5.882-3.909-4.768-8.092C138.276,163.535,138.706,160.754,138.851,157.803z"
/>
<path fill-rule="evenodd" clip-rule="evenodd" fill="#EFEFEF" d="M237.773,208.215c2.783,6.768,6.219,12.992,11.033,18.387
c1.983,2.224,4.046,4.381,6.003,6.63c2.438,2.797,1.8,6.102-1.365,8.126c-1.365,0.875-2.79,1.839-3.774,3.089
c-1.83,2.321-4.241,2.296-6.426,1.48c-3.668-1.371-7.438-1.903-11.255-2.156c-4.758-0.316-5.418-1.384-4.693-5.964
c1.124-7.08,3.443-13.91,4.063-21.104c0.206-2.398,1.527-4.74,2.544-7.017C234.662,207.983,236.26,207.932,237.773,208.215z"/>
<path fill-rule="evenodd" clip-rule="evenodd" fill="#EFEFEF" d="M93.462,157.998c7.796-2.888,15.332-5.678,23.8-8.812
c3.934,1.454,9.054,3.367,14.188,5.235c1.925,0.701,3.308,1.884,2.874,4.038c-0.407,2.021-0.368,4.064-0.684,6.059
c-0.38,2.395-1.354,3.958-4.602,3.783c-5.871-0.32-11.877-0.792-17.544,1.678c-0.385,0.167-1.184,0.049-1.435-0.244
c-3.355-3.889-8.393-5.067-12.476-7.772C96.014,160.921,94.858,159.573,93.462,157.998z"/>
</g>
</svg>